<?xml version="1.0" encoding="UTF-8" standalone="no"?>
<svg
   xmlns:dc="http://purl.org/dc/elements/1.1/"
   xmlns:cc="http://creativecommons.org/ns#"
   xmlns:rdf="http://www.w3.org/1999/02/22-rdf-syntax-ns#"
   xmlns:svg="http://www.w3.org/2000/svg"
   xmlns="http://www.w3.org/2000/svg"
   xmlns:sodipodi="http://sodipodi.sourceforge.net/DTD/sodipodi-0.dtd"
   xmlns:inkscape="http://www.inkscape.org/namespaces/inkscape"
   width="93.397919mm"
   height="65.616661mm"
   viewBox="0 0 93.397919 65.616661"
   version="1.1"
   id="svg8"
   inkscape:version="1.0 (4035a4fb49, 2020-05-01)"
   sodipodi:docname="planner.svg">
  <defs
     id="defs2" />
  <sodipodi:namedview
     id="base"
     pagecolor="#ffffff"
     bordercolor="#666666"
     borderopacity="1.0"
     inkscape:pageopacity="0.0"
     inkscape:pageshadow="2"
     inkscape:zoom="0.7"
     inkscape:cx="311.56551"
     inkscape:cy="-16.986291"
     inkscape:document-units="mm"
     inkscape:current-layer="layer1"
     showgrid="false"
     inkscape:window-width="1920"
     inkscape:window-height="1017"
     inkscape:window-x="1912"
     inkscape:window-y="-8"
     inkscape:window-maximized="1"
     inkscape:document-rotation="0" />
  <metadata
     id="metadata5">
    <rdf:RDF>
      <cc:Work
         rdf:about="">
        <dc:format>image/svg+xml</dc:format>
        <dc:type
           rdf:resource="http://purl.org/dc/dcmitype/StillImage" />
        <dc:title />
      </cc:Work>
    </rdf:RDF>
  </metadata>
  <g
     inkscape:label="Layer 1"
     inkscape:groupmode="layer"
     id="layer1"
     transform="translate(-2.7343631e-6,-231.38333)">
    <path
       transform="matrix(0.26458333,0,0,0.26458333,2.7343631e-6,231.38333)"
       d="M 0.1328125 0.1328125 L 0.1328125 247.86719 L 352.86719 247.86719 L 352.86719 0.1328125 L 0.1328125 0.1328125 z M 146.5293 57.857422 L 156.86328 57.857422 C 158.5685 57.857422 159.96484 59.253775 159.96484 60.958984 L 159.96484 74.394531 L 193.03516 74.394531 L 193.03516 60.958984 C 193.03516 59.253775 194.4315 57.857422 196.13672 57.857422 L 206.4707 57.857422 C 208.17592 57.857422 209.57031 59.253775 209.57031 60.958984 L 209.57031 74.394531 L 221.97266 74.394531 C 228.81935 74.394531 234.37305 79.948232 234.37305 86.794922 L 234.37305 177.74023 C 234.37305 184.58692 228.81935 190.14258 221.97266 190.14258 L 131.02734 190.14258 C 124.18064 190.14258 118.62695 184.58692 118.62695 177.74023 L 118.62695 86.794922 C 118.62695 79.948232 124.18064 74.394531 131.02734 74.394531 L 143.42969 74.394531 L 143.42969 60.958984 C 143.42969 59.253775 144.82408 57.857422 146.5293 57.857422 z M 131.02734 99.197266 L 131.02734 176.18945 C 131.02734 177.04208 131.72552 177.74023 132.57812 177.74023 L 220.42188 177.74023 C 221.27448 177.74023 221.97266 177.04208 221.97266 176.18945 L 221.97266 99.197266 L 131.02734 99.197266 z M 146.5293 115.73242 L 156.86328 115.73242 C 158.5685 115.73242 159.96484 117.12682 159.96484 118.83203 L 159.96484 129.16797 C 159.96484 130.87318 158.5685 132.26758 156.86328 132.26758 L 146.5293 132.26758 C 144.82408 132.26758 143.42969 130.87318 143.42969 129.16797 L 143.42969 118.83203 C 143.42969 117.12682 144.82408 115.73242 146.5293 115.73242 z M 171.33203 115.73242 L 181.66797 115.73242 C 183.37319 115.73242 184.76758 117.12682 184.76758 118.83203 L 184.76758 129.16797 C 184.76758 130.87318 183.37319 132.26758 181.66797 132.26758 L 171.33203 132.26758 C 169.62681 132.26758 168.23242 130.87318 168.23242 129.16797 L 168.23242 118.83203 C 168.23242 117.12682 169.62681 115.73242 171.33203 115.73242 z M 196.13672 115.73242 L 206.4707 115.73242 C 208.17592 115.73242 209.57031 117.12682 209.57031 118.83203 L 209.57031 129.16797 C 209.57031 130.87318 208.17592 132.26758 206.4707 132.26758 L 196.13672 132.26758 C 194.4315 132.26758 193.03516 130.87318 193.03516 129.16797 L 193.03516 118.83203 C 193.03516 117.12682 194.4315 115.73242 196.13672 115.73242 z M 146.5293 140.53516 L 156.86328 140.53516 C 158.5685 140.53516 159.96484 141.93151 159.96484 143.63672 L 159.96484 153.9707 C 159.96484 155.67591 158.5685 157.07031 156.86328 157.07031 L 146.5293 157.07031 C 144.82408 157.07031 143.42969 155.67591 143.42969 153.9707 L 143.42969 143.63672 C 143.42969 141.93151 144.82408 140.53516 146.5293 140.53516 z M 171.33203 140.53516 L 181.66797 140.53516 C 183.37319 140.53516 184.76758 141.93151 184.76758 143.63672 L 184.76758 153.9707 C 184.76758 155.67591 183.37319 157.07031 181.66797 157.07031 L 171.33203 157.07031 C 169.62681 157.07031 168.23242 155.67591 168.23242 153.9707 L 168.23242 143.63672 C 168.23242 141.93151 169.62681 140.53516 171.33203 140.53516 z M 196.13672 140.53516 L 206.4707 140.53516 C 208.17592 140.53516 209.57031 141.93151 209.57031 143.63672 L 209.57031 153.9707 C 209.57031 155.67591 208.17592 157.07031 206.4707 157.07031 L 196.13672 157.07031 C 194.4315 157.07031 193.03516 155.67591 193.03516 153.9707 L 193.03516 143.63672 C 193.03516 141.93151 194.4315 140.53516 196.13672 140.53516 z "
       style="opacity:1;fill:#833471;fill-opacity:1;stroke:#000000;stroke-width:0.264343;stroke-opacity:0"
       id="rect854" />
  </g>
</svg>
