<?xml version="1.0" encoding="UTF-8" standalone="no"?>
<svg
   xmlns:dc="http://purl.org/dc/elements/1.1/"
   xmlns:cc="http://creativecommons.org/ns#"
   xmlns:rdf="http://www.w3.org/1999/02/22-rdf-syntax-ns#"
   xmlns:svg="http://www.w3.org/2000/svg"
   xmlns="http://www.w3.org/2000/svg"
   xmlns:sodipodi="http://sodipodi.sourceforge.net/DTD/sodipodi-0.dtd"
   xmlns:inkscape="http://www.inkscape.org/namespaces/inkscape"
   sodipodi:docname="tracking.svg"
   inkscape:version="1.0 (4035a4fb49, 2020-05-01)"
   id="svg8"
   version="1.1"
   viewBox="0 0 93.397919 65.616661"
   height="65.616661mm"
   width="93.397919mm">
  <defs
     id="defs2" />
  <sodipodi:namedview
     inkscape:document-rotation="0"
     inkscape:window-maximized="1"
     inkscape:window-y="-8"
     inkscape:window-x="1912"
     inkscape:window-height="1017"
     inkscape:window-width="1920"
     showgrid="false"
     inkscape:current-layer="layer1"
     inkscape:document-units="mm"
     inkscape:cy="109.9421"
     inkscape:cx="43.45924"
     inkscape:zoom="1.4"
     inkscape:pageshadow="2"
     inkscape:pageopacity="0.0"
     borderopacity="1.0"
     bordercolor="#666666"
     pagecolor="#ffffff"
     id="base" />
  <metadata
     id="metadata5">
    <rdf:RDF>
      <cc:Work
         rdf:about="">
        <dc:format>image/svg+xml</dc:format>
        <dc:type
           rdf:resource="http://purl.org/dc/dcmitype/StillImage" />
        <dc:title />
      </cc:Work>
    </rdf:RDF>
  </metadata>
  <g
     transform="translate(-2.7343631e-6,-231.38333)"
     id="layer1"
     inkscape:groupmode="layer"
     inkscape:label="Layer 1">
    <path
       id="rect854"
       style="opacity:1;fill:#1b1464;fill-opacity:1;stroke:#000000;stroke-width:0.264343;stroke-opacity:0"
       d="M 0.1328125 0.1328125 L 0.1328125 247.86719 L 352.86719 247.86719 L 352.86719 0.1328125 L 0.1328125 0.1328125 z M 114.49219 57.857422 L 238.50781 57.857422 C 245.35452 57.857422 250.91016 63.413076 250.91016 70.259766 L 250.91016 152.9375 C 250.91016 159.78419 245.35452 165.33789 238.50781 165.33789 L 188.90234 165.33789 L 193.03516 177.74023 L 211.63867 177.74023 C 215.07494 177.74023 217.83789 180.5051 217.83789 183.94141 C 217.83789 187.37764 215.07494 190.14258 211.63867 190.14258 L 141.36133 190.14258 C 137.92506 190.14258 135.16211 187.37764 135.16211 183.94141 C 135.16211 180.5051 137.92506 177.74023 141.36133 177.74023 L 159.96484 177.74023 L 164.09766 165.33789 L 114.49219 165.33789 C 107.64548 165.33789 102.08984 159.78419 102.08984 152.9375 L 102.08984 70.259766 C 102.08984 63.413076 107.64548 57.857422 114.49219 57.857422 z M 118.62695 74.394531 L 118.62695 148.80273 L 234.37305 148.80273 L 234.37305 74.394531 L 118.62695 74.394531 z "
       transform="matrix(0.26458333,0,0,0.26458333,2.7343631e-6,231.38333)" />
  </g>
</svg>
