<?xml version="1.0" encoding="UTF-8" standalone="no"?>

<svg
   width="93.397919mm"
   height="65.616661mm"
   viewBox="0 0 93.397919 65.616661"
   version="1.1">
  <g
     inkscape:label="Layer 1"
     inkscape:groupmode="layer"
     id="layer1"
     transform="translate(-2.7343631e-6,-231.38333)">
    <rect
       style="opacity:1;fill:#ff9955;fill-opacity:1;stroke:#000000;stroke-width:0.06994082;stroke-opacity:0"
       id="rect854"
       width="93.32798"
       height="65.546722"
       x="-93.362953"
       y="231.4183"
       transform="scale(-1,1)" />
    <g
       style="fill:currentColor"
       id="g914"
       transform="matrix(2.8332857,0,0,3.1666662,24.021714,237.27355)">
      <path
         id="path900"
         d="M 6.354,5.5 H 4 a 3,3 0 0 0 0,6 h 3 a 3,3 0 0 0 2.83,-4 H 9 C 8.914,7.5 8.83,7.51 8.75,7.531 A 2,2 0 0 1 7,10.5 H 4 a 2,2 0 1 1 0,-4 H 5.535 C 5.753,6.124 6.03,5.786 6.355,5.5 Z"
         inkscape:connector-curvature="0" />
      <path
         id="path902"
         d="m 9,5.5 a 3,3 0 0 0 -2.83,4 H 7.268 A 2,2 0 0 1 9,6.5 h 3 a 2,2 0 1 1 0,4 h -1.535 a 4.02,4.02 0 0 1 -0.82,1 H 12 a 3,3 0 1 0 0,-6 z"
         inkscape:connector-curvature="0" />
    </g>
  </g>
</svg>
