<?xml version="1.0" encoding="UTF-8" standalone="no"?>
<!-- Created with Inkscape (http://www.inkscape.org/) -->

<svg
   xmlns:dc="http://purl.org/dc/elements/1.1/"
   xmlns:cc="http://creativecommons.org/ns#"
   xmlns:rdf="http://www.w3.org/1999/02/22-rdf-syntax-ns#"
   xmlns:svg="http://www.w3.org/2000/svg"
   xmlns="http://www.w3.org/2000/svg"
   xmlns:sodipodi="http://sodipodi.sourceforge.net/DTD/sodipodi-0.dtd"
   xmlns:inkscape="http://www.inkscape.org/namespaces/inkscape"
   width="93.397919mm"
   height="65.616661mm"
   viewBox="0 0 93.397919 65.616661"
   version="1.1"
   id="svg8"
   inkscape:version="0.92.4 (5da689c313, 2019-01-14)"
   sodipodi:docname="members.svg">
  <defs
     id="defs2" />
  <sodipodi:namedview
     id="base"
     pagecolor="#ffffff"
     bordercolor="#666666"
     borderopacity="1.0"
     inkscape:pageopacity="0.0"
     inkscape:pageshadow="2"
     inkscape:zoom="1.4"
     inkscape:cx="104.53935"
     inkscape:cy="252.79924"
     inkscape:document-units="mm"
     inkscape:current-layer="layer1"
     showgrid="false"
     inkscape:window-width="1920"
     inkscape:window-height="1001"
     inkscape:window-x="-9"
     inkscape:window-y="-9"
     inkscape:window-maximized="1" />
  <metadata
     id="metadata5">
    <rdf:RDF>
      <cc:Work
         rdf:about="">
        <dc:format>image/svg+xml</dc:format>
        <dc:type
           rdf:resource="http://purl.org/dc/dcmitype/StillImage" />
        <dc:title></dc:title>
      </cc:Work>
    </rdf:RDF>
  </metadata>
  <g
     inkscape:label="Layer 1"
     inkscape:groupmode="layer"
     id="layer1"
     transform="translate(-2.7343631e-6,-231.38333)">
    <rect
       style="opacity:1;fill:#87de87;fill-opacity:1;stroke:#000000;stroke-width:0.06994082;stroke-opacity:0"
       id="rect854"
       width="93.32798"
       height="65.546722"
       x="-93.362953"
       y="231.4183"
       transform="scale(-1,1)" />
    <g
       style="fill:currentColor"
       id="g854"
       transform="matrix(3.3072917,0,0,3.1485417,20.134794,238.65939)">
      <path
         id="path843"
         d="m 13,14 c 0,0 1,0 1,-1 0,-1 -1,-4 -6,-4 -5,0 -6,3 -6,4 0,1 1,1 1,1 z M 3.005,13.056 V 13.054 Z M 3.022,13 h 9.956 a 0.274,0.274 0 0 0 0.014,-0.002 L 13,12.996 C 12.999,12.75 12.846,12.01 12.168,11.332 11.516,10.68 10.289,10 8,10 5.71,10 4.484,10.68 3.832,11.332 3.154,12.01 3.002,12.75 3,12.996 A 1.05,1.05 0 0 0 3.022,13 Z m 9.974,0.056 V 13.054 Z M 8,7 A 2,2 0 1 0 8,3 2,2 0 0 0 8,7 Z m 3,-2 a 3,3 0 1 1 -6,0 3,3 0 0 1 6,0 z"
         inkscape:connector-curvature="0"
         style="fill-rule:evenodd" />
    </g>
  </g>
</svg>
