<?xml version="1.0" encoding="UTF-8" standalone="no"?>
<svg
   xmlns:dc="http://purl.org/dc/elements/1.1/"
   xmlns:cc="http://creativecommons.org/ns#"
   xmlns:rdf="http://www.w3.org/1999/02/22-rdf-syntax-ns#"
   xmlns:svg="http://www.w3.org/2000/svg"
   xmlns="http://www.w3.org/2000/svg"
   xmlns:sodipodi="http://sodipodi.sourceforge.net/DTD/sodipodi-0.dtd"
   xmlns:inkscape="http://www.inkscape.org/namespaces/inkscape"
   width="93.397919mm"
   height="65.616661mm"
   viewBox="0 0 93.397919 65.616661"
   version="1.1"
   id="svg8"
   inkscape:version="1.0 (4035a4fb49, 2020-05-01)"
   sodipodi:docname="forms.svg">
  <defs
     id="defs2" />
  <sodipodi:namedview
     id="base"
     pagecolor="#ffffff"
     bordercolor="#666666"
     borderopacity="1.0"
     inkscape:pageopacity="0.0"
     inkscape:pageshadow="2"
     inkscape:zoom="0.98994949"
     inkscape:cx="170.14592"
     inkscape:cy="68.77569"
     inkscape:document-units="mm"
     inkscape:current-layer="layer1"
     showgrid="false"
     inkscape:window-width="1920"
     inkscape:window-height="1017"
     inkscape:window-x="-8"
     inkscape:window-y="-8"
     inkscape:window-maximized="1"
     inkscape:document-rotation="0" />
  <metadata
     id="metadata5">
    <rdf:RDF>
      <cc:Work
         rdf:about="">
        <dc:format>image/svg+xml</dc:format>
        <dc:type
           rdf:resource="http://purl.org/dc/dcmitype/StillImage" />
        <dc:title />
      </cc:Work>
    </rdf:RDF>
  </metadata>
  <g
     inkscape:label="Layer 1"
     inkscape:groupmode="layer"
     id="layer1"
     transform="translate(-2.7343631e-6,-231.38333)">
    <path
       transform="matrix(0.26458333,0,0,0.26458333,2.7343631e-6,231.38333)"
       d="M 0.1328125 0.1328125 L 0.1328125 247.86719 L 352.86719 247.86719 L 352.86719 0.1328125 L 0.1328125 0.1328125 z M 108.29102 57.857422 L 159.96484 57.857422 L 159.96484 92.996094 C 159.96484 96.40655 162.75363 99.197266 166.16406 99.197266 L 201.30469 99.197266 L 201.30469 111.22461 L 168.23438 144.05859 L 168.23438 165.27734 C 167.2345 165.19726 166.30472 164.63483 165.81641 163.6582 C 162.73151 157.4936 153.8664 155.81708 148.76367 160 L 145.17773 149.24219 C 144.32771 146.70503 141.96643 145.00195 139.29492 145.00195 C 136.62342 145.00195 134.26276 146.7076 133.41016 149.24219 L 128.70898 163.35938 C 128.31368 164.54267 127.20884 165.33789 125.96094 165.33789 L 122.75977 165.33789 C 120.47581 165.33789 118.625 167.18869 118.625 169.47266 C 118.625 171.75662 120.47581 173.60547 122.75977 173.60547 L 125.96094 173.60547 C 130.77171 173.60547 135.03096 170.53928 136.55273 165.97656 L 139.29492 157.74023 L 143.64258 170.7793 C 144.79231 174.25688 149.61397 174.62222 151.25977 171.32031 L 153.24219 167.35547 C 153.96561 165.90848 155.29267 165.75781 155.83008 165.75781 C 156.36729 165.75781 157.69472 165.91145 158.45703 167.43945 C 158.45703 167.43945 158.45703 167.44141 158.45703 167.44141 C 160.33044 171.1791 164.06813 173.49606 168.23242 173.57617 L 201.30273 173.60547 L 201.30273 183.94141 C 201.30273 187.37764 198.53783 190.14258 195.10156 190.14258 L 108.29102 190.14258 C 104.85474 190.14258 102.08984 187.37764 102.08984 183.94141 L 102.08984 64.058594 C 102.08984 60.622323 104.85474 57.857422 108.29102 57.857422 z M 168.23242 57.857422 L 169.80859 57.857422 C 171.46214 57.857422 173.03852 58.503395 174.20117 59.666016 L 199.49414 84.986328 C 200.65678 86.148986 201.30273 87.725786 201.30273 89.353516 L 201.30273 90.929688 L 168.23242 90.929688 L 168.23242 57.857422 z M 236.0957 90.929688 C 237.77961 90.929688 239.46397 91.573346 240.74805 92.857422 L 248.98242 101.08984 C 251.55317 103.65803 251.55317 107.82638 248.98242 110.39453 L 241.94141 117.43555 L 224.4043 99.896484 L 231.44336 92.857422 C 232.72744 91.573346 234.4118 90.929688 236.0957 90.929688 z M 218.55859 105.74414 L 236.09766 123.28125 L 194.32422 165.33789 L 176.5 165.33789 L 176.5 147.5 L 218.55859 105.74414 z "
       style="opacity:1;fill:#ea2027;fill-opacity:1;stroke:#000000;stroke-width:0.264343;stroke-opacity:0"
       id="rect854" />
  </g>
</svg>
