<?xml version="1.0" encoding="UTF-8" standalone="no"?>
<svg
   xmlns:dc="http://purl.org/dc/elements/1.1/"
   xmlns:cc="http://creativecommons.org/ns#"
   xmlns:rdf="http://www.w3.org/1999/02/22-rdf-syntax-ns#"
   xmlns:svg="http://www.w3.org/2000/svg"
   xmlns="http://www.w3.org/2000/svg"
   xmlns:sodipodi="http://sodipodi.sourceforge.net/DTD/sodipodi-0.dtd"
   xmlns:inkscape="http://www.inkscape.org/namespaces/inkscape"
   sodipodi:docname="mailchimp.svg"
   inkscape:version="1.0 (4035a4fb49, 2020-05-01)"
   id="svg8"
   version="1.1"
   viewBox="0 0 93.397919 65.616661"
   height="65.616661mm"
   width="93.397919mm">
  <defs
     id="defs2" />
  <sodipodi:namedview
     inkscape:document-rotation="0"
     inkscape:window-maximized="1"
     inkscape:window-y="-8"
     inkscape:window-x="-8"
     inkscape:window-height="1017"
     inkscape:window-width="1920"
     showgrid="false"
     inkscape:current-layer="layer1"
     inkscape:document-units="mm"
     inkscape:cy="68.77569"
     inkscape:cx="41.574487"
     inkscape:zoom="1.4"
     inkscape:pageshadow="2"
     inkscape:pageopacity="0.0"
     borderopacity="1.0"
     bordercolor="#666666"
     pagecolor="#ffffff"
     id="base" />
  <metadata
     id="metadata5">
    <rdf:RDF>
      <cc:Work
         rdf:about="">
        <dc:format>image/svg+xml</dc:format>
        <dc:type
           rdf:resource="http://purl.org/dc/dcmitype/StillImage" />
        <dc:title />
      </cc:Work>
    </rdf:RDF>
  </metadata>
  <g
     transform="translate(-2.7343631e-6,-231.38333)"
     id="layer1"
     inkscape:groupmode="layer"
     inkscape:label="Layer 1">
    <path
       id="rect854"
       style="opacity:1;fill:#b53471;fill-opacity:1;stroke:#000000;stroke-width:0.264343;stroke-opacity:0"
       d="M 0.1328125 0.1328125 L 0.1328125 247.86719 L 352.86719 247.86719 L 352.86719 0.1328125 L 0.1328125 0.1328125 z M 172.45898 57.857422 C 175.486 57.867315 178.16891 58.73217 180.3457 60.630859 C 180.44588 60.719263 187.11895 67.264179 187.13672 67.279297 L 190.83398 65.708984 C 208.29657 58.481734 222.46466 61.970162 222.48242 73.507812 C 222.49126 79.506414 218.67024 86.502334 212.54492 92.851562 C 220.25534 100.01101 218.44283 113.94888 218.88477 117.30469 C 221.00609 117.89395 227.93002 119.55026 230.99414 122.76758 C 236.40351 128.43917 232.62028 134.42848 231.89844 135.50977 C 233.13883 138.83908 232.90948 138.10068 233.89648 141.55664 L 233.90625 141.55664 C 235.80364 141.55664 238.77539 143.76644 238.77539 149.00195 C 238.77539 154.23751 236.60446 160.17127 236.0918 161.48828 C 220.06699 199.87237 158.14558 199.80667 141.13672 160.60352 C 131.8471 160.61527 122.23018 152.65506 121.24023 142.81445 A 21.357572 21.357572 0 0 1 122.44727 132.94336 L 118.09961 129.25781 C 100.37429 114.29033 147.81044 57.77686 172.45898 57.857422 z M 172.30469 62.675781 C 161.35405 63.117953 142.32477 77.113613 129.74609 95.064453 C 124.13049 103.08128 116.10244 117.26638 119.93555 124.58789 C 120.40401 125.47177 123.08956 127.80868 124.52734 129.00781 C 126.9374 125.49879 130.87524 122.9668 135.3418 122.09766 C 141.03106 106.83298 150.52688 92.768345 163.0957 83.089844 C 172.42067 75.308704 182.48047 69.728516 182.48047 69.728516 C 182.48047 69.728516 177.06292 63.446951 175.42773 62.984375 C 174.48391 62.729431 173.43751 62.630039 172.30469 62.675781 z M 190.96875 80.691406 C 185.80687 81.009605 179.91848 83.482152 176.5332 85.789062 A 0.22097087 0.22097087 0 0 1 176.19141 85.556641 C 176.45657 84.286795 177.29054 82.61181 177.7207 81.828125 A 0.21507832 0.21507832 0 0 0 177.42578 81.535156 C 171.984 84.319383 165.90863 89.277476 160.97656 94.978516 L 160.99414 94.974609 A 0.22391717 0.22391717 0 0 0 161.28906 95.304688 C 164.65371 92.859295 180.42465 82.704025 200.91602 87.400391 C 201.1694 87.456365 201.32937 87.021145 201.10547 86.894531 C 197.76439 85.026575 192.65226 83.756925 189.02539 83.730469 A 0.22097087 0.22097087 0 0 1 188.85156 83.378906 A 12.333121 12.333121 0 0 1 191.12305 81.097656 A 0.22686342 0.22686342 0 0 0 190.96875 80.691406 z M 207.56055 98.363281 A 5.1412558 5.1412558 0 0 0 206.42969 98.513672 C 204.75326 98.79948 203.75892 99.695356 202.52148 100.72656 C 198.85632 103.78174 195.76061 104.28021 192.31641 104.13281 C 190.25696 104.04736 188.07266 103.72553 185.57422 103.57812 L 184.10156 103.49219 C 178.33275 103.19754 172.14838 108.18091 171.11719 115.25195 C 169.68529 125.10136 176.81261 130.18925 178.875 133.17383 A 2.4896053 2.4896053 0 0 1 179.44141 134.51172 C 179.44141 135.0833 179.07332 135.53591 178.71094 135.92188 C 172.82426 141.97354 170.94161 151.58772 173.16016 159.60156 A 19.542664 19.542664 0 0 0 174.20508 162.4707 C 179.41999 174.62706 195.56259 180.29068 211.32812 175.14062 A 39.023456 39.023456 0 0 0 217.32031 172.61328 A 31.483931 31.483931 0 0 0 226.49805 165.74414 C 230.68176 161.37183 233.16934 156.61989 234.13867 150.76562 C 234.96658 145.27979 231.84592 145.23933 230.76758 145.43359 A 30.302473 30.302473 0 0 0 228.66992 138.2793 C 224.06489 141.91796 218.14939 144.4576 213.64453 145.74805 C 193.19736 151.6141 187.07183 143.87673 185.24219 149.81641 C 195.19177 153.46097 205.7207 151.90039 205.7207 151.90039 C 206.48377 151.82382 205.88672 152.64648 205.88672 152.64648 C 205.88672 152.64648 197.81453 156.40229 184.96875 152.42773 C 185.32525 155.44179 188.25869 156.79476 189.66406 157.33984 C 198.91538 160.93724 215.20511 158.10013 227.51172 149.67969 C 227.7623 149.50564 227.92986 149.67823 227.72656 149.97266 C 219.1912 162.15551 189.79928 166.10719 183.12891 156.26367 C 179.5698 151.01047 182.95192 143.34216 188.88867 144.14062 C 190.89214 144.36747 204.73208 146.49693 218.49414 140.10938 C 226.59346 136.34995 229.65103 132.21514 229.19141 128.86523 A 4.8260039 4.8260039 0 0 0 227.79492 126.12891 C 226.32178 124.70588 224.0268 123.59503 220.13477 122.50195 C 218.85019 122.13957 217.97893 121.91111 217.03906 121.60156 C 215.36558 121.06238 214.53913 120.62022 214.35352 117.47656 C 214.27102 116.11242 214.03272 111.31584 213.94727 109.33594 C 213.79406 105.87109 213.38182 101.13015 210.43555 99.173828 A 5.1412558 5.1412558 0 0 0 207.56055 98.363281 z M 207.73438 110.35156 C 209.34697 110.32732 210.16725 112.18563 210.7832 115.13281 C 211.22514 117.24825 211.13947 119.19381 210.65039 120.32227 A 10.650796 10.650796 0 0 0 207.91992 120.32031 C 207.91992 120.32031 207.91992 120.32227 207.91992 120.32227 L 207.91016 120.32227 A 10.650796 10.650796 0 0 1 207.91992 120.32031 C 207.18078 119.38328 206.52341 117.87053 206.15234 116.10352 C 205.49533 112.95691 205.56486 110.67831 207.40039 110.38086 C 207.51511 110.36226 207.62687 110.35318 207.73438 110.35156 z M 187.50977 118.88672 A 9.2630993 9.2630993 0 0 1 191 119.5918 C 193.54558 120.68193 195.12716 122.87569 194.57031 123.44727 C 194.25212 123.7802 193.44785 123.40958 192.13086 122.82031 L 192.13086 122.82422 C 190.81682 122.24674 189.10732 121.60083 187.04492 121.73047 C 183.33261 121.95735 180.63715 123.85778 180.38672 122.75586 C 180.26887 122.21376 181.09659 121.31807 181.98047 120.67578 A 9.2630993 9.2630993 0 0 1 187.50977 118.88672 z M 210.05859 123.33008 C 212.32722 123.3743 212.24225 128.07138 209.97656 128.0332 C 207.71088 127.99492 207.79588 123.30167 210.05273 123.33984 L 210.05859 123.33008 z M 190.51367 124.29492 C 192.82275 124.40285 194.39201 125.77728 194.01562 126.34961 C 193.83001 126.64706 193.42086 126.5943 192.56055 126.49414 A 10.90123 10.90123 0 0 0 187.04492 127.06836 C 185.85464 127.54534 185.77494 127.4068 185.50977 127.30664 C 185.05899 126.2548 186.80624 124.75042 189.47852 124.33203 L 189.48242 124.33203 C 189.83892 124.28968 190.1838 124.2795 190.51367 124.29492 z M 202.84766 126.47266 C 204.34919 126.55954 206.1241 127.97758 205.43945 129.36914 C 204.42953 131.3896 200.22634 129.34532 201.22656 127.30664 C 201.5396 126.66859 202.16514 126.43316 202.84766 126.47266 z M 138.99414 126.64648 C 132.1185 126.42963 125.0673 132.17516 126.08984 142.33594 C 126.81168 149.51307 134.07152 155.56424 140.79492 155.74414 L 140.78516 155.73633 C 149.46195 155.93668 152.1755 147.43591 150.83789 138.70312 C 149.58241 130.59018 144.34186 126.81515 138.99414 126.64648 z M 138.60938 131.72461 C 140.58964 131.7839 142.63796 132.77994 143.97852 135.35352 C 146.36795 139.88785 141.56364 143.53555 143.0957 145.89258 C 143.82344 147.01219 145.20289 146.6774 145.5918 146.58594 L 145.59766 146.57617 C 146.78501 146.30805 146.59268 146.95371 146.58398 146.69141 A 0.6128259 0.6128259 0 0 1 146.64258 147.37695 C 145.71155 149.54837 140.69469 149.64097 140.28516 144.72656 C 140.01704 141.52693 143.02802 138.5292 139.61328 136.29297 A 3.7800752 3.7800752 0 0 0 134.35352 137.39062 C 133.38124 138.9109 133.43775 140.98422 132.17969 140.81641 C 131.08367 140.65729 131.08614 136.54911 133.65234 133.7207 C 134.71742 132.54219 136.62911 131.66532 138.60938 131.72461 z "
       transform="matrix(0.26458333,0,0,0.26458333,2.7343631e-6,231.38333)" />
  </g>
</svg>
