<?xml version="1.0" encoding="UTF-8" standalone="no"?>
<svg
   xmlns:dc="http://purl.org/dc/elements/1.1/"
   xmlns:cc="http://creativecommons.org/ns#"
   xmlns:rdf="http://www.w3.org/1999/02/22-rdf-syntax-ns#"
   xmlns:svg="http://www.w3.org/2000/svg"
   xmlns="http://www.w3.org/2000/svg"
   xmlns:sodipodi="http://sodipodi.sourceforge.net/DTD/sodipodi-0.dtd"
   xmlns:inkscape="http://www.inkscape.org/namespaces/inkscape"
   width="93.397919mm"
   height="65.616661mm"
   viewBox="0 0 93.397919 65.616661"
   version="1.1"
   id="svg8"
   inkscape:version="1.0 (4035a4fb49, 2020-05-01)"
   sodipodi:docname="documentation.svg">
  <defs
     id="defs2" />
  <sodipodi:namedview
     id="base"
     pagecolor="#ffffff"
     bordercolor="#666666"
     borderopacity="1.0"
     inkscape:pageopacity="0.0"
     inkscape:pageshadow="2"
     inkscape:zoom="0.7"
     inkscape:cx="311.56551"
     inkscape:cy="-16.986291"
     inkscape:document-units="mm"
     inkscape:current-layer="layer1"
     showgrid="false"
     inkscape:window-width="1920"
     inkscape:window-height="1017"
     inkscape:window-x="1912"
     inkscape:window-y="-8"
     inkscape:window-maximized="1"
     inkscape:document-rotation="0" />
  <metadata
     id="metadata5">
    <rdf:RDF>
      <cc:Work
         rdf:about="">
        <dc:format>image/svg+xml</dc:format>
        <dc:type
           rdf:resource="http://purl.org/dc/dcmitype/StillImage" />
        <dc:title />
      </cc:Work>
    </rdf:RDF>
  </metadata>
  <g
     inkscape:label="Layer 1"
     inkscape:groupmode="layer"
     id="layer1"
     transform="translate(-2.7343631e-6,-231.38333)">
    <path
       id="rect854"
       style="opacity:1;fill:#eab543;fill-opacity:1;stroke:#000000;stroke-width:0.264343;stroke-opacity:0"
       d="M 0.1328125 0.1328125 L 0.1328125 247.86719 L 352.86719 247.86719 L 352.86719 0.1328125 L 0.1328125 0.1328125 z M 143.42969 57.857422 L 228.17383 57.857422 C 231.61009 57.857422 234.37305 60.622323 234.37305 64.058594 L 234.37305 150.86914 C 234.37305 152.8069 233.4694 154.56479 232.07422 155.67578 C 230.98908 159.6546 230.98908 170.99774 232.07422 174.97656 C 233.4694 176.11337 234.37305 177.86891 234.37305 179.80664 L 234.37305 183.94141 C 234.37305 187.37764 231.61009 190.14258 228.17383 190.14258 L 143.42969 190.14258 C 129.73628 190.14258 118.62695 179.03131 118.62695 165.33789 L 118.62695 82.662109 C 118.62695 68.968692 129.73628 57.857422 143.42969 57.857422 z M 153.24609 90.929688 C 152.39349 90.929688 151.69727 91.625892 151.69727 92.478516 L 151.69727 97.646484 C 151.69727 98.499108 152.39349 99.197266 153.24609 99.197266 L 208.02148 99.197266 C 208.87409 99.197266 209.57031 98.499108 209.57031 97.646484 L 209.57031 92.478516 C 209.57031 91.625892 208.87409 90.929688 208.02148 90.929688 L 153.24609 90.929688 z M 153.24609 107.46484 C 152.39349 107.46484 151.69727 108.163 151.69727 109.01562 L 151.69727 114.18164 C 151.69727 115.03426 152.39349 115.73242 153.24609 115.73242 L 208.02148 115.73242 C 208.87409 115.73242 209.57031 115.03426 209.57031 114.18164 L 209.57031 109.01562 C 209.57031 108.163 208.87409 107.46484 208.02148 107.46484 L 153.24609 107.46484 z M 143.42969 157.07031 C 138.88244 157.07031 135.16211 160.79063 135.16211 165.33789 C 135.16211 169.91097 138.85661 173.60547 143.42969 173.60547 L 217.16602 173.60547 C 216.67512 169.18739 216.67512 161.48835 217.16602 157.07031 L 143.42969 157.07031 z "
       transform="matrix(0.26458333,0,0,0.26458333,2.7343631e-6,231.38333)" />
  </g>
</svg>
