<?xml version="1.0" encoding="UTF-8" standalone="no"?>
<svg
   xmlns:dc="http://purl.org/dc/elements/1.1/"
   xmlns:cc="http://creativecommons.org/ns#"
   xmlns:rdf="http://www.w3.org/1999/02/22-rdf-syntax-ns#"
   xmlns:svg="http://www.w3.org/2000/svg"
   xmlns="http://www.w3.org/2000/svg"
   xmlns:sodipodi="http://sodipodi.sourceforge.net/DTD/sodipodi-0.dtd"
   xmlns:inkscape="http://www.inkscape.org/namespaces/inkscape"
   sodipodi:docname="fiche.svg"
   inkscape:version="1.0 (4035a4fb49, 2020-05-01)"
   id="svg8"
   version="1.1"
   viewBox="0 0 93.397919 65.616661"
   height="65.616661mm"
   width="93.397919mm">
  <defs
     id="defs2" />
  <sodipodi:namedview
     inkscape:document-rotation="0"
     inkscape:window-maximized="1"
     inkscape:window-y="-8"
     inkscape:window-x="-8"
     inkscape:window-height="1017"
     inkscape:window-width="1920"
     showgrid="false"
     inkscape:current-layer="layer1"
     inkscape:document-units="mm"
     inkscape:cy="109.9421"
     inkscape:cx="-119.04076"
     inkscape:zoom="1.4"
     inkscape:pageshadow="2"
     inkscape:pageopacity="0.0"
     borderopacity="1.0"
     bordercolor="#666666"
     pagecolor="#ffffff"
     id="base" />
  <metadata
     id="metadata5">
    <rdf:RDF>
      <cc:Work
         rdf:about="">
        <dc:format>image/svg+xml</dc:format>
        <dc:type
           rdf:resource="http://purl.org/dc/dcmitype/StillImage" />
        <dc:title />
      </cc:Work>
    </rdf:RDF>
  </metadata>
  <g
     transform="translate(-2.7343631e-6,-231.38333)"
     id="layer1"
     inkscape:groupmode="layer"
     inkscape:label="Layer 1">
    <path
       transform="matrix(0.26458333,0,0,0.26458333,2.7343631e-6,231.38333)"
       d="M 0.1328125 0.1328125 L 0.1328125 247.86719 L 352.86719 247.86719 L 352.86719 0.1328125 L 0.1328125 0.1328125 z M 170.30469 57.857422 L 231.65234 57.857422 C 234.25409 57.857422 236.70446 59.071853 238.26758 61.154297 L 257.52344 86.832031 A 8.2690065 8.2690065 0 0 1 258.30273 95.490234 L 254.60547 102.88281 A 8.2677146 8.2677146 0 0 1 247.21094 107.45508 L 239.21094 107.45508 C 237.0174 107.45508 234.91348 106.58341 233.36328 105.0332 L 226.10547 99.185547 L 209.57031 99.185547 L 209.57031 108.66602 A 12.399505 12.399505 0 0 0 216.42578 119.75586 L 242.43164 132.75391 C 253.25977 138.16925 259.7839 149.30981 259.13281 161.52539 C 258.25954 177.85412 243.70941 190.14522 227.35742 190.14258 L 98.410156 190.14258 C 95.875582 190.14258 93.822266 188.07495 93.822266 185.54297 C 93.822266 183.39336 95.31613 181.52952 97.414062 181.06445 C 120.54816 175.92297 159.03648 167.08757 209.57031 165.32812 C 194.07609 154.99603 184.76758 137.60544 184.76758 118.98242 L 184.76758 90.917969 L 169.37305 84.498047 C 167.84868 83.735867 167.84868 81.562999 169.37305 80.800781 L 184.76758 74.382812 L 168.8418 61.375 C 167.53963 60.072877 168.46254 57.857422 170.30469 57.857422 z M 220.21094 74.974609 C 219.09221 79.403006 222.4211 82.457318 225.76953 82.640625 C 228.78208 82.803371 231.29339 80.742562 232.00391 77.923828 L 220.21094 74.974609 z M 136.72852 82.654297 C 139.80226 82.715783 142.87391 83.63273 145.56641 85.427734 L 176.5 108.06055 L 176.5 118.98242 C 176.5 126.45179 177.86571 133.70455 180.30469 140.52539 L 122.76758 140.52539 C 119.08586 140.52539 117.24137 136.07307 119.8457 133.46875 L 143.42969 115.72266 L 98.556641 123.94336 C 94.433116 124.53244 92.12565 119.34079 95.324219 116.67188 L 125.65625 86.615234 C 128.82011 83.912088 132.77655 82.575244 136.72852 82.654297 z "
       style="opacity:1;fill:#009432;fill-opacity:1;stroke:#000000;stroke-width:0.264343;stroke-opacity:0"
       id="rect854" />
  </g>
</svg>
