<?xml version="1.0" encoding="UTF-8" standalone="no"?>
<!-- Created with Inkscape (http://www.inkscape.org/) -->

<svg
   xmlns:dc="http://purl.org/dc/elements/1.1/"
   xmlns:cc="http://creativecommons.org/ns#"
   xmlns:rdf="http://www.w3.org/1999/02/22-rdf-syntax-ns#"
   xmlns:svg="http://www.w3.org/2000/svg"
   xmlns="http://www.w3.org/2000/svg"
   xmlns:sodipodi="http://sodipodi.sourceforge.net/DTD/sodipodi-0.dtd"
   xmlns:inkscape="http://www.inkscape.org/namespaces/inkscape"
   width="93.397919mm"
   height="65.616661mm"
   viewBox="0 0 93.397919 65.616661"
   version="1.1"
   id="svg8"
   inkscape:version="0.92.4 (5da689c313, 2019-01-14)"
   sodipodi:docname="files.svg">
  <defs
     id="defs2" />
  <sodipodi:namedview
     id="base"
     pagecolor="#ffffff"
     bordercolor="#666666"
     borderopacity="1.0"
     inkscape:pageopacity="0.0"
     inkscape:pageshadow="2"
     inkscape:zoom="1.4"
     inkscape:cx="103.11078"
     inkscape:cy="252.79924"
     inkscape:document-units="mm"
     inkscape:current-layer="layer1"
     showgrid="false"
     inkscape:window-width="1920"
     inkscape:window-height="1001"
     inkscape:window-x="-9"
     inkscape:window-y="-9"
     inkscape:window-maximized="1" />
  <metadata
     id="metadata5">
    <rdf:RDF>
      <cc:Work
         rdf:about="">
        <dc:format>image/svg+xml</dc:format>
        <dc:type
           rdf:resource="http://purl.org/dc/dcmitype/StillImage" />
        <dc:title />
      </cc:Work>
    </rdf:RDF>
  </metadata>
  <g
     inkscape:label="Layer 1"
     inkscape:groupmode="layer"
     id="layer1"
     transform="translate(-2.7343631e-6,-231.38333)">
    <path
       style="opacity:1;fill:#fda7df;fill-opacity:1;stroke:#000000;stroke-width:0.26434326;stroke-opacity:0"
       d="
            M 0.1328125 0.1328125 
            L 0.1328125 247.86719 
            L 352.86719 247.86719 
            L 352.86719 0.1328125 
            L 0.1328125 0.1328125 
            z 
            M 93.822266 57.857422 
            L 148.94141 57.857422 
            L 170.98828 79.90625 
            L 226.10547 79.90625 
            C 235.23786 79.90625 242.64258 87.309009 242.64258 96.441406 
            L 242.64258 112.97656 
            L 129.65039 112.97656 
            C 117.93401 112.97656 106.98748 119.26245 101.08398 129.38281 
            L 77.287109 170.17773 
            L 77.287109 74.394531 
            C 77.287109 65.262134 84.689884 57.857422 93.822266 57.857422 
            z 
            M 129.65039 124 
            L 267.43164 124 
            C 273.81259 124 277.78967 130.92176 274.57422 136.43359 
            L 249.625 179.20312 
            A 22.046211 22.046211 0 0 1 230.58008 190.14258 
            L 92.798828 190.14258 
            C 86.417874 190.14258 82.441138 183.22082 85.65625 177.70898 
            L 110.60547 134.9375 
            A 22.047244 22.047244 0 0 1 129.65039 124 z "
       transform="matrix(0.26458333,0,0,0.26458333,2.7343631e-6,231.38333)"
       id="rect854" />
  </g>
</svg>
