<?xml version="1.0" encoding="UTF-8" standalone="no"?>
<!-- Created with Inkscape (http://www.inkscape.org/) -->

<svg
   xmlns:dc="http://purl.org/dc/elements/1.1/"
   xmlns:cc="http://creativecommons.org/ns#"
   xmlns:rdf="http://www.w3.org/1999/02/22-rdf-syntax-ns#"
   xmlns:svg="http://www.w3.org/2000/svg"
   xmlns="http://www.w3.org/2000/svg"
   xmlns:sodipodi="http://sodipodi.sourceforge.net/DTD/sodipodi-0.dtd"
   xmlns:inkscape="http://www.inkscape.org/namespaces/inkscape"
   width="93.397919mm"
   height="65.616661mm"
   viewBox="0 0 93.397919 65.616661"
   version="1.1"
   id="svg8"
   inkscape:version="0.92.4 (5da689c313, 2019-01-14)"
   sodipodi:docname="forms.svg">
  <defs
     id="defs2" />
  <sodipodi:namedview
     id="base"
     pagecolor="#ffffff"
     bordercolor="#666666"
     borderopacity="1.0"
     inkscape:pageopacity="0.0"
     inkscape:pageshadow="2"
     inkscape:zoom="1.4"
     inkscape:cx="65.503061"
     inkscape:cy="68.77569"
     inkscape:document-units="mm"
     inkscape:current-layer="layer1"
     showgrid="false"
     inkscape:window-width="1920"
     inkscape:window-height="1001"
     inkscape:window-x="2091"
     inkscape:window-y="-9"
     inkscape:window-maximized="1" />
  <metadata
     id="metadata5">
    <rdf:RDF>
      <cc:Work
         rdf:about="">
        <dc:format>image/svg+xml</dc:format>
        <dc:type
           rdf:resource="http://purl.org/dc/dcmitype/StillImage" />
        <dc:title />
      </cc:Work>
    </rdf:RDF>
  </metadata>
  <g
     inkscape:label="Layer 1"
     inkscape:groupmode="layer"
     id="layer1"
     transform="translate(-2.7343631e-6,-231.38333)">
    <rect
       style="opacity:1;fill:#1289a7;fill-opacity:1;stroke:#000000;stroke-width:0.06994082;stroke-opacity:0"
       id="rect854"
       width="93.32798"
       height="65.546722"
       x="-93.362953"
       y="231.4183"
       transform="scale(-1,1)" />
    <path
       id="path899"
       d="m 54.511724,270.27048 2.187178,-2.18718 c 0.341747,-0.34175 0.936389,-0.10252 0.936389,0.38959 v 9.938 c 0,1.81126 -1.469514,3.28077 -3.28077,3.28077 H 30.295545 c -1.811258,0 -3.28077,-1.46951 -3.28077,-3.28077 v -24.05897 c 0,-1.81126 1.469512,-3.28078 3.28077,-3.28078 h 18.69355 c 0.485281,0 0.731339,0.58781 0.389592,0.93639 l -2.18718,2.18718 c -0.102524,0.10253 -0.239223,0.15721 -0.389591,0.15721 H 30.295545 v 24.05897 h 24.058976 v -7.75765 c 0,-0.14354 0.05468,-0.28023 0.157203,-0.38276 z m 10.70351,-13.7929 -17.948543,17.94854 -6.178783,0.68349 c -1.790753,0.19822 -3.314943,-1.31231 -3.11673,-3.11673 l 0.683494,-6.17878 17.948542,-17.94854 c 1.565201,-1.5652 4.094126,-1.5652 5.652491,0 l 2.952693,2.95269 c 1.565201,1.56521 1.565201,4.10096 0.0068,5.65933 z m -6.752919,2.112 -3.971097,-3.9711 -12.699311,12.70614 -0.49895,4.46321 4.463213,-0.49895 z m 4.429039,-5.44745 -2.952693,-2.95269 c -0.280232,-0.28023 -0.738172,-0.28023 -1.011569,0 l -2.111994,2.11199 3.971097,3.9711 2.111994,-2.11199 c 0.273399,-0.28707 0.273399,-0.73818 -0.0068,-1.01841 z"
       inkscape:connector-curvature="0"
       style="fill:#adb5bd;fill-opacity:1;stroke-width:0.06834937" />
  </g>
</svg>
