<?xml version="1.0" encoding="UTF-8" standalone="no"?>
<!-- Created with Inkscape (http://www.inkscape.org/) -->

<svg
   xmlns:dc="http://purl.org/dc/elements/1.1/"
   xmlns:cc="http://creativecommons.org/ns#"
   xmlns:rdf="http://www.w3.org/1999/02/22-rdf-syntax-ns#"
   xmlns:svg="http://www.w3.org/2000/svg"
   xmlns="http://www.w3.org/2000/svg"
   xmlns:sodipodi="http://sodipodi.sourceforge.net/DTD/sodipodi-0.dtd"
   xmlns:inkscape="http://www.inkscape.org/namespaces/inkscape"
   width="93.397919mm"
   height="65.616661mm"
   viewBox="0 0 93.397919 65.616661"
   version="1.1"
   id="svg8"
   inkscape:version="0.92.4 (5da689c313, 2019-01-14)"
   sodipodi:docname="forms.svg">
  <defs
     id="defs2" />
  <sodipodi:namedview
     id="base"
     pagecolor="#ffffff"
     bordercolor="#666666"
     borderopacity="1.0"
     inkscape:pageopacity="0.0"
     inkscape:pageshadow="2"
     inkscape:zoom="1.4"
     inkscape:cx="-78.068368"
     inkscape:cy="68.77569"
     inkscape:document-units="mm"
     inkscape:current-layer="layer1"
     showgrid="false"
     inkscape:window-width="1920"
     inkscape:window-height="1001"
     inkscape:window-x="-9"
     inkscape:window-y="-9"
     inkscape:window-maximized="1" />
  <metadata
     id="metadata5">
    <rdf:RDF>
      <cc:Work
         rdf:about="">
        <dc:format>image/svg+xml</dc:format>
        <dc:type
           rdf:resource="http://purl.org/dc/dcmitype/StillImage" />
        <dc:title />
      </cc:Work>
    </rdf:RDF>
  </metadata>
  <g
     inkscape:label="Layer 1"
     inkscape:groupmode="layer"
     id="layer1"
     transform="translate(-2.7343631e-6,-231.38333)">
    <path
       style="opacity:1;fill:#1289a7;fill-opacity:1;stroke:#000000;stroke-width:0.26434326;stroke-opacity:0"
       d="M 0.1328125 0.1328125 L 0.1328125 247.86719 L 352.86719 247.86719 L 352.86719 0.1328125 L 0.1328125 0.1328125 z M 224.625 57.857422 C 228.49024 57.857422 232.35193 59.337064 235.29688 62.294922 L 246.45703 73.455078 C 252.37275 79.370832 252.37244 88.953848 246.48242 94.84375 L 178.64648 162.68164 L 155.29297 165.26562 C 148.52477 166.0148 142.76452 160.30423 143.51367 153.48438 L 146.0957 130.13281 L 213.93359 62.294922 C 216.89145 59.337064 220.75976 57.857422 224.625 57.857422 z M 224.61914 70.283203 C 223.92488 70.283203 223.23345 70.548556 222.7168 71.078125 L 214.73438 79.060547 L 229.74219 94.070312 L 237.72461 86.087891 C 238.75793 85.002902 238.75824 83.297418 237.69922 82.238281 L 226.53906 71.078125 C 226.00949 70.548556 225.3134 70.283203 224.61914 70.283203 z M 114.50195 74.410156 L 185.15625 74.410156 C 186.99038 74.410156 187.92055 76.631751 186.62891 77.949219 L 178.36133 86.216797 C 177.97384 86.604312 177.45699 86.810547 176.88867 86.810547 L 114.50195 86.810547 L 114.50195 177.74219 L 205.43359 177.74219 L 205.43359 148.42188 C 205.43359 147.87936 205.64181 147.36212 206.0293 146.97461 L 214.29492 138.70898 C 215.58656 137.41733 217.83398 138.3217 217.83398 140.18164 L 217.83398 177.74219 C 217.83398 184.58789 212.27929 190.14258 205.43359 190.14258 L 114.50195 190.14258 C 107.65625 190.14258 102.10352 184.58789 102.10352 177.74219 L 102.10352 86.810547 C 102.10352 79.96484 107.65625 74.410156 114.50195 74.410156 z M 205.95117 87.818359 L 157.95312 135.8418 L 156.06836 152.70898 L 172.9375 150.82422 L 220.95898 102.82617 L 205.95117 87.818359 z "
       transform="matrix(0.26458333,0,0,0.26458333,2.7343631e-6,231.38333)"
       id="rect854" />
  </g>
</svg>
