<?xml version="1.0" encoding="UTF-8" standalone="no"?>
<svg
   xmlns:dc="http://purl.org/dc/elements/1.1/"
   xmlns:cc="http://creativecommons.org/ns#"
   xmlns:rdf="http://www.w3.org/1999/02/22-rdf-syntax-ns#"
   xmlns:svg="http://www.w3.org/2000/svg"
   xmlns="http://www.w3.org/2000/svg"
   xmlns:sodipodi="http://sodipodi.sourceforge.net/DTD/sodipodi-0.dtd"
   xmlns:inkscape="http://www.inkscape.org/namespaces/inkscape"
   width="93.397919mm"
   height="65.616661mm"
   viewBox="0 0 93.397919 65.616661"
   version="1.1"
   id="svg8"
   inkscape:version="1.0 (4035a4fb49, 2020-05-01)"
   sodipodi:docname="links.svg">
  <defs
     id="defs2" />
  <sodipodi:namedview
     id="base"
     pagecolor="#ffffff"
     bordercolor="#666666"
     borderopacity="1.0"
     inkscape:pageopacity="0.0"
     inkscape:pageshadow="2"
     inkscape:zoom="1.4"
     inkscape:cx="-215.56837"
     inkscape:cy="68.77569"
     inkscape:document-units="mm"
     inkscape:current-layer="layer1"
     showgrid="false"
     inkscape:window-width="1920"
     inkscape:window-height="1017"
     inkscape:window-x="1912"
     inkscape:window-y="-8"
     inkscape:window-maximized="1"
     inkscape:document-rotation="0" />
  <metadata
     id="metadata5">
    <rdf:RDF>
      <cc:Work
         rdf:about="">
        <dc:format>image/svg+xml</dc:format>
        <dc:type
           rdf:resource="http://purl.org/dc/dcmitype/StillImage" />
        <dc:title />
      </cc:Work>
    </rdf:RDF>
  </metadata>
  <g
     inkscape:label="Layer 1"
     inkscape:groupmode="layer"
     id="layer1"
     transform="translate(-2.7343631e-6,-231.38333)">
    <path
       style="opacity:1;fill:#ff7675;fill-opacity:1;stroke:#000000;stroke-width:0.26434326;stroke-opacity:0"
       d="M 0.1328125 0.1328125 L 0.1328125 247.86719 L 352.86719 247.86719 L 352.86719 0.1328125 L 0.1328125 0.1328125 z M 203.38867 57.857422 C 213.4452 57.857682 223.50074 61.686175 231.15625 69.341797 C 246.46958 84.65255 246.46984 109.57037 231.15625 124.88086 L 221.57031 134.4668 C 219.02799 137.0091 214.64911 135.31938 214.51758 131.72656 C 214.35016 127.14778 213.52873 122.54781 212.01367 118.10547 C 211.50056 116.60125 211.86829 114.93833 212.99219 113.81445 L 216.37305 110.43359 C 223.61428 103.19262 223.84151 91.401567 216.67188 84.089844 C 209.43117 76.705894 197.53037 76.661069 190.23438 83.957031 L 172.87109 101.31836 C 165.58751 108.60192 165.61799 120.37385 172.87109 127.62695 C 173.8273 128.58136 174.7906 129.32377 175.54297 129.8418 A 4.1434106 4.1434106 0 0 1 177.33789 133.09766 C 177.44021 135.8278 176.47376 138.64147 174.31641 140.79883 L 168.87695 146.23828 C 167.45077 147.66449 165.21265 147.83993 163.55859 146.68555 A 39.388883 39.388883 0 0 1 158.25586 142.24219 C 142.81928 126.78959 143.03261 102.01644 158.16406 86.800781 C 158.19248 86.769789 158.22487 86.735314 158.25586 86.705078 L 175.61914 69.341797 C 183.27581 61.685135 193.33214 57.857162 203.38867 57.857422 z M 186.69727 100.57031 C 187.64175 100.49252 188.61438 100.73726 189.44141 101.31445 A 39.396117 39.396117 0 0 1 194.74414 105.75586 L 194.74414 105.75781 C 210.18071 121.21041 209.96765 145.98356 194.83594 161.19922 C 194.80759 161.22945 194.77513 161.26393 194.74414 161.29492 L 177.38086 178.6582 C 162.06753 193.97153 137.15476 193.96945 121.84375 178.6582 C 106.53042 163.34741 106.53042 138.42989 121.84375 123.11914 L 131.42969 113.5332 C 133.97201 110.9909 138.35117 112.68058 138.48242 116.27344 C 138.64982 120.85222 139.47127 125.45219 140.98633 129.89453 C 141.49944 131.39875 141.1317 133.06163 140.00781 134.18555 L 136.62695 137.56641 C 129.38599 144.80734 129.15846 156.5984 136.32812 163.91016 C 143.56857 171.29395 155.46963 171.3372 162.76562 164.04102 L 180.12891 146.68164 C 187.41249 139.39804 187.38201 127.62615 180.12891 120.37305 C 179.17269 119.4186 178.20939 118.67623 177.45703 118.1582 A 4.1434106 4.1434106 0 0 1 175.66211 114.90234 C 175.5598 112.17224 176.52624 109.35853 178.68359 107.20117 L 184.12305 101.76172 C 184.83626 101.04852 185.75278 100.64811 186.69727 100.57031 z "
       transform="matrix(0.26458333,0,0,0.26458333,2.7343631e-6,231.38333)"
       id="rect854" />
  </g>
</svg>
