<?xml version="1.0" encoding="UTF-8" standalone="no"?>
<!-- Created with Inkscape (http://www.inkscape.org/) -->

<svg
   xmlns:dc="http://purl.org/dc/elements/1.1/"
   xmlns:cc="http://creativecommons.org/ns#"
   xmlns:rdf="http://www.w3.org/1999/02/22-rdf-syntax-ns#"
   xmlns:svg="http://www.w3.org/2000/svg"
   xmlns="http://www.w3.org/2000/svg"
   xmlns:sodipodi="http://sodipodi.sourceforge.net/DTD/sodipodi-0.dtd"
   xmlns:inkscape="http://www.inkscape.org/namespaces/inkscape"
   width="93.397919mm"
   height="65.616661mm"
   viewBox="0 0 93.397919 65.616661"
   version="1.1"
   id="svg8"
   inkscape:version="0.92.4 (5da689c313, 2019-01-14)"
   sodipodi:docname="maps.svg">
  <defs
     id="defs2" />
  <sodipodi:namedview
     id="base"
     pagecolor="#ffffff"
     bordercolor="#666666"
     borderopacity="1.0"
     inkscape:pageopacity="0.0"
     inkscape:pageshadow="2"
     inkscape:zoom="1.4"
     inkscape:cx="65.503061"
     inkscape:cy="68.77569"
     inkscape:document-units="mm"
     inkscape:current-layer="layer1"
     showgrid="false"
     inkscape:window-width="1920"
     inkscape:window-height="1001"
     inkscape:window-x="2091"
     inkscape:window-y="-9"
     inkscape:window-maximized="1" />
  <metadata
     id="metadata5">
    <rdf:RDF>
      <cc:Work
         rdf:about="">
        <dc:format>image/svg+xml</dc:format>
        <dc:type
           rdf:resource="http://purl.org/dc/dcmitype/StillImage" />
        <dc:title />
      </cc:Work>
    </rdf:RDF>
  </metadata>
  <g
     inkscape:label="Layer 1"
     inkscape:groupmode="layer"
     id="layer1"
     transform="translate(-2.7343631e-6,-231.38333)">
    <rect
       style="opacity:1;fill:#ed4c67;fill-opacity:1;stroke:#000000;stroke-width:0.06994082;stroke-opacity:0"
       id="rect854"
       width="93.32798"
       height="65.546722"
       x="-93.362953"
       y="231.4183"
       transform="scale(-1,1)" />
    <path
       id="path877"
       d="m 46.698962,246.69166 c -4.757128,0 -8.61328,3.85615 -8.61328,8.61328 0,3.8459 5.629394,10.85547 7.786132,13.3998 0.436817,0.51543 1.218164,0.51543 1.654297,0 2.156739,-2.54433 7.786132,-9.5539 7.786132,-13.3998 0,-4.75713 -3.856152,-8.61328 -8.613281,-8.61328 z m 0,11.48438 c -1.585937,0 -2.871093,-1.28516 -2.871093,-2.8711 0,-1.58594 1.285156,-2.87109 2.871093,-2.87109 1.585938,0 2.871094,1.28515 2.871094,2.87109 0,1.58594 -1.285156,2.8711 -2.871094,2.8711 z m -18.312108,3.27782 a 2.1879101,2.1879101 0 0 0 -1.375391,2.03097 v 17.11171 c 0,0.77383 0.781348,1.30293 1.499804,1.01582 l 9.437696,-4.2957 v -15.93321 c -0.604297,-1.09237 -1.098535,-2.15605 -1.452637,-3.17324 z m 18.312108,9.82462 c -0.961816,0 -1.871679,-0.42247 -2.4958,-1.15938 -1.343946,-1.58593 -2.77334,-3.39199 -4.066699,-5.24453 v 12.44141 l 13.124998,4.375 v -16.81573 c -1.293358,1.85186 -2.722069,3.6586 -4.066698,5.24454 -0.624121,0.73622 -1.533984,1.15869 -2.495801,1.15869 z m 18.187694,-13.57003 -9.437694,4.29571 v 19.6875 l 9.56211,-3.8247 a 2.1872265,2.1872265 0 0 0 1.375389,-2.03097 v -17.11171 c 0,-0.77383 -0.781345,-1.30293 -1.499805,-1.01583 z"
       inkscape:connector-curvature="0"
       style="fill:#adb5bd;stroke-width:0.06835937;fill-opacity:1" />
  </g>
</svg>
