<?xml version="1.0" encoding="UTF-8" standalone="no"?>
<!-- Created with Inkscape (http://www.inkscape.org/) -->

<svg
   xmlns:dc="http://purl.org/dc/elements/1.1/"
   xmlns:cc="http://creativecommons.org/ns#"
   xmlns:rdf="http://www.w3.org/1999/02/22-rdf-syntax-ns#"
   xmlns:svg="http://www.w3.org/2000/svg"
   xmlns="http://www.w3.org/2000/svg"
   xmlns:sodipodi="http://sodipodi.sourceforge.net/DTD/sodipodi-0.dtd"
   xmlns:inkscape="http://www.inkscape.org/namespaces/inkscape"
   width="93.397919mm"
   height="65.616661mm"
   viewBox="0 0 93.397919 65.616661"
   version="1.1"
   id="svg8"
   inkscape:version="0.92.4 (5da689c313, 2019-01-14)"
   sodipodi:docname="members.svg">
  <defs
     id="defs2" />
  <sodipodi:namedview
     id="base"
     pagecolor="#ffffff"
     bordercolor="#666666"
     borderopacity="1.0"
     inkscape:pageopacity="0.0"
     inkscape:pageshadow="2"
     inkscape:zoom="1.4"
     inkscape:cx="-39.032079"
     inkscape:cy="252.79924"
     inkscape:document-units="mm"
     inkscape:current-layer="layer1"
     showgrid="false"
     inkscape:window-width="1920"
     inkscape:window-height="1001"
     inkscape:window-x="2091"
     inkscape:window-y="-9"
     inkscape:window-maximized="1" />
  <metadata
     id="metadata5">
    <rdf:RDF>
      <cc:Work
         rdf:about="">
        <dc:format>image/svg+xml</dc:format>
        <dc:type
           rdf:resource="http://purl.org/dc/dcmitype/StillImage" />
        <dc:title />
      </cc:Work>
    </rdf:RDF>
  </metadata>
  <g
     inkscape:label="Layer 1"
     inkscape:groupmode="layer"
     id="layer1"
     transform="translate(-2.7343631e-6,-231.38333)">
    <rect
       style="opacity:1;fill:#12cbc4;fill-opacity:1;stroke:#000000;stroke-width:0.06994082;stroke-opacity:0"
       id="rect854"
       width="93.32798"
       height="65.546722"
       x="-93.362953"
       y="231.4183"
       transform="scale(-1,1)" />
    <path
       id="path855"
       d="m 29.198961,261.69166 c 2.757812,0 5.000001,-2.24219 5.000001,-5 0,-2.75782 -2.242189,-5 -5.000001,-5 -2.757812,0 -5,2.24218 -5,5 0,2.75781 2.242188,5 5,5 z m 35.000003,0 c 2.757812,0 4.999999,-2.24219 4.999999,-5 0,-2.75782 -2.242187,-5 -4.999999,-5 -2.757815,0 -5.000003,2.24218 -5.000003,5 0,2.75781 2.242188,5 5.000003,5 z m 2.499998,2.5 h -4.999999 c -1.375001,0 -2.617188,0.55469 -3.523439,1.45312 3.148439,1.72657 5.382813,4.84376 5.867189,8.54688 h 5.15625 c 1.382811,0 2.500001,-1.11718 2.500001,-2.5 v -2.5 c 0,-2.75781 -2.24219,-5 -5.000002,-5 z m -20.000001,0 c 4.835939,0 8.75,-3.91406 8.75,-8.75 0,-4.83594 -3.914061,-8.75 -8.75,-8.75 -4.835937,0 -8.75,3.91406 -8.75,8.75 0,4.83594 3.914063,8.75 8.75,8.75 z m 6.000001,2.5 h -0.648437 c -1.625001,0.78125 -3.429688,1.25 -5.351564,1.25 -1.921874,0 -3.718749,-0.46875 -5.351562,-1.25 h -0.648438 c -4.968749,0 -9,4.03125 -9,9 v 2.25 c 0,2.07032 1.679688,3.75 3.75,3.75 h 22.500001 c 2.070314,0 3.750001,-1.67968 3.750001,-3.75 v -2.25 c 0,-4.96875 -4.031251,-9 -9.000001,-9 z m -17.476563,-1.04688 c -0.90625,-0.89843 -2.148438,-1.45312 -3.523438,-1.45312 h -5 c -2.757813,0 -5,2.24219 -5,5 v 2.5 c 0,1.38282 1.117188,2.5 2.5,2.5 h 5.148438 c 0.492187,-3.70312 2.726562,-6.82031 5.875,-8.54688 z"
       inkscape:connector-curvature="0"
       style="fill:#adb5bd;fill-opacity:1;stroke-width:0.07812499" />
  </g>
</svg>
