<?xml version="1.0" encoding="UTF-8" standalone="no"?>
<svg
   xmlns:dc="http://purl.org/dc/elements/1.1/"
   xmlns:cc="http://creativecommons.org/ns#"
   xmlns:rdf="http://www.w3.org/1999/02/22-rdf-syntax-ns#"
   xmlns:svg="http://www.w3.org/2000/svg"
   xmlns="http://www.w3.org/2000/svg"
   xmlns:sodipodi="http://sodipodi.sourceforge.net/DTD/sodipodi-0.dtd"
   xmlns:inkscape="http://www.inkscape.org/namespaces/inkscape"
   width="93.397919mm"
   height="65.616661mm"
   viewBox="0 0 93.397919 65.616661"
   version="1.1"
   id="svg8"
   inkscape:version="1.0 (4035a4fb49, 2020-05-01)"
   sodipodi:docname="profile.svg">
  <defs
     id="defs2" />
  <sodipodi:namedview
     id="base"
     pagecolor="#ffffff"
     bordercolor="#666666"
     borderopacity="1.0"
     inkscape:pageopacity="0.0"
     inkscape:pageshadow="2"
     inkscape:zoom="0.7"
     inkscape:cx="311.56551"
     inkscape:cy="-16.986291"
     inkscape:document-units="mm"
     inkscape:current-layer="layer1"
     showgrid="false"
     inkscape:window-width="1920"
     inkscape:window-height="1017"
     inkscape:window-x="1912"
     inkscape:window-y="-8"
     inkscape:window-maximized="1"
     inkscape:document-rotation="0" />
  <metadata
     id="metadata5">
    <rdf:RDF>
      <cc:Work
         rdf:about="">
        <dc:format>image/svg+xml</dc:format>
        <dc:type
           rdf:resource="http://purl.org/dc/dcmitype/StillImage" />
        <dc:title />
      </cc:Work>
    </rdf:RDF>
  </metadata>
  <g
     inkscape:label="Layer 1"
     inkscape:groupmode="layer"
     id="layer1"
     transform="translate(-2.7343631e-6,-231.38333)">
    <path
       transform="matrix(0.26458333,0,0,0.26458333,2.7343631e-6,231.38333)"
       d="M 0.1328125 0.1328125 L 0.1328125 247.86719 L 352.86719 247.86719 L 352.86719 0.1328125 L 0.1328125 0.1328125 z M 105.63477 57.857422 L 247.36523 57.857422 C 255.19004 57.857422 261.53906 64.206456 261.53906 72.03125 L 261.53906 175.96875 C 261.53906 183.79354 255.19004 190.14258 247.36523 190.14258 L 105.63477 190.14258 C 97.809964 190.14258 91.460938 183.79354 91.460938 175.96875 L 91.460938 72.03125 C 91.460937 64.206456 97.809964 57.857422 105.63477 57.857422 z M 105.63477 90.929688 L 105.63477 175.96875 L 115.31836 175.96875 C 115.02306 174.64002 115.08203 177.03068 115.08203 169.35352 C 115.08203 159.96373 123.97106 152.3457 134.92578 152.3457 C 138.29192 152.3457 140.21139 154.70898 148.1543 154.70898 C 155.86099 154.70898 158.19384 152.3457 161.38281 152.3457 C 172.33754 152.3457 181.22461 159.96373 181.22461 169.35352 C 181.22461 177.03068 181.25402 174.64002 180.98828 175.96875 L 247.36523 175.96875 L 247.36523 90.929688 L 105.63477 90.929688 z M 148.1543 105.10156 C 158.57753 105.10156 167.05078 113.57678 167.05078 124 C 167.05078 134.42322 158.57753 142.89844 148.1543 142.89844 C 137.73107 142.89844 129.25586 134.42322 129.25586 124 C 129.25586 113.57678 137.73107 105.10156 148.1543 105.10156 z M 197.75977 105.10156 L 230.83008 105.10156 C 232.12928 105.10156 233.19336 106.16563 233.19336 107.46484 L 233.19336 112.18945 C 233.19336 113.48867 232.12928 114.55078 230.83008 114.55078 L 197.75977 114.55078 C 196.46055 114.55078 195.39844 113.48867 195.39844 112.18945 L 195.39844 107.46484 C 195.39844 106.16563 196.46055 105.10156 197.75977 105.10156 z M 197.75977 124 L 230.83008 124 C 232.12928 124 233.19336 125.06212 233.19336 126.36133 L 233.19336 131.08594 C 233.19336 132.38515 232.12928 133.44922 230.83008 133.44922 L 197.75977 133.44922 C 196.46055 133.44922 195.39844 132.38515 195.39844 131.08594 L 195.39844 126.36133 C 195.39844 125.06212 196.46055 124 197.75977 124 z M 197.75977 142.89844 L 230.83008 142.89844 C 232.12928 142.89844 233.19336 143.96055 233.19336 145.25977 L 233.19336 149.98438 C 233.19336 151.28359 232.12928 152.3457 230.83008 152.3457 L 197.75977 152.3457 C 196.46055 152.3457 195.39844 151.28359 195.39844 149.98438 L 195.39844 145.25977 C 195.39844 143.96055 196.46055 142.89844 197.75977 142.89844 z "
       style="opacity:1;fill:#b53471;fill-opacity:1;stroke:#000000;stroke-width:0.264343;stroke-opacity:0"
       id="rect854" />
  </g>
</svg>
