<?xml version="1.0" encoding="UTF-8" standalone="no"?>
<svg
   xmlns:dc="http://purl.org/dc/elements/1.1/"
   xmlns:cc="http://creativecommons.org/ns#"
   xmlns:rdf="http://www.w3.org/1999/02/22-rdf-syntax-ns#"
   xmlns:svg="http://www.w3.org/2000/svg"
   xmlns="http://www.w3.org/2000/svg"
   xmlns:sodipodi="http://sodipodi.sourceforge.net/DTD/sodipodi-0.dtd"
   xmlns:inkscape="http://www.inkscape.org/namespaces/inkscape"
   sodipodi:docname="report.svg"
   inkscape:version="1.0 (4035a4fb49, 2020-05-01)"
   id="svg8"
   version="1.1"
   viewBox="0 0 93.397919 65.616661"
   height="65.616661mm"
   width="93.397919mm">
  <defs
     id="defs2" />
  <sodipodi:namedview
     inkscape:document-rotation="0"
     inkscape:window-maximized="1"
     inkscape:window-y="-8"
     inkscape:window-x="1912"
     inkscape:window-height="1017"
     inkscape:window-width="1920"
     showgrid="false"
     inkscape:current-layer="layer1"
     inkscape:document-units="mm"
     inkscape:cy="-16.986291"
     inkscape:cx="311.56551"
     inkscape:zoom="0.7"
     inkscape:pageshadow="2"
     inkscape:pageopacity="0.0"
     borderopacity="1.0"
     bordercolor="#666666"
     pagecolor="#ffffff"
     id="base" />
  <metadata
     id="metadata5">
    <rdf:RDF>
      <cc:Work
         rdf:about="">
        <dc:format>image/svg+xml</dc:format>
        <dc:type
           rdf:resource="http://purl.org/dc/dcmitype/StillImage" />
        <dc:title />
      </cc:Work>
    </rdf:RDF>
  </metadata>
  <g
     transform="translate(-2.7343631e-6,-231.38333)"
     id="layer1"
     inkscape:groupmode="layer"
     inkscape:label="Layer 1">
    <path
       transform="matrix(0.26458333,0,0,0.26458333,2.7343631e-6,231.38333)"
       d="M 0.1328125 0.1328125 L 0.1328125 247.86719 L 352.86719 247.86719 L 352.86719 0.1328125 L 0.1328125 0.1328125 z M 176.50391 57.857422 C 180.6832 57.859297 184.86083 59.92716 187.24219 64.054688 L 249.23438 171.54297 C 254.0033 179.80914 248.01711 190.14258 238.49219 190.14258 L 114.50586 190.14258 C 104.96259 190.14258 99.004052 179.79311 103.76367 171.54297 L 165.75781 64.054688 C 168.14344 59.919658 172.32461 57.855546 176.50391 57.857422 z M 168.3125 103.33008 C 166.53391 103.33008 165.11991 104.82361 165.2168 106.59961 L 167.13281 141.73828 C 167.22246 143.38253 168.58195 144.66992 170.22852 144.66992 L 182.77148 144.66992 C 184.41805 144.66992 185.77754 143.38253 185.86719 141.73828 L 187.7832 106.59961 C 187.88011 104.82361 186.46609 103.33008 184.6875 103.33008 L 168.3125 103.33008 z M 176.5 149.32031 C 169.93621 149.32031 164.61523 154.64129 164.61523 161.20508 C 164.61523 167.76887 169.93621 173.08984 176.5 173.08984 C 183.06379 173.08984 188.38477 167.76887 188.38477 161.20508 C 188.38477 154.64129 183.06379 149.32031 176.5 149.32031 z "
       style="opacity:1;fill:#ee5a24;fill-opacity:1;stroke:#000000;stroke-width:0.264343;stroke-opacity:0"
       id="rect854" />
  </g>
</svg>
