<?xml version="1.0" encoding="UTF-8" standalone="no"?>
<!-- Created with Inkscape (http://www.inkscape.org/) -->

<svg
   xmlns:dc="http://purl.org/dc/elements/1.1/"
   xmlns:cc="http://creativecommons.org/ns#"
   xmlns:rdf="http://www.w3.org/1999/02/22-rdf-syntax-ns#"
   xmlns:svg="http://www.w3.org/2000/svg"
   xmlns="http://www.w3.org/2000/svg"
   xmlns:sodipodi="http://sodipodi.sourceforge.net/DTD/sodipodi-0.dtd"
   xmlns:inkscape="http://www.inkscape.org/namespaces/inkscape"
   width="93.397919mm"
   height="65.616661mm"
   viewBox="0 0 93.397919 65.616661"
   version="1.1"
   id="svg8"
   inkscape:version="0.92.4 (5da689c313, 2019-01-14)"
   sodipodi:docname="splitflap.svg">
  <defs
     id="defs2" />
  <sodipodi:namedview
     id="base"
     pagecolor="#ffffff"
     bordercolor="#666666"
     borderopacity="1.0"
     inkscape:pageopacity="0.0"
     inkscape:pageshadow="2"
     inkscape:zoom="1.4"
     inkscape:cx="136.67353"
     inkscape:cy="109.9421"
     inkscape:document-units="mm"
     inkscape:current-layer="layer1"
     showgrid="false"
     inkscape:window-width="1920"
     inkscape:window-height="1001"
     inkscape:window-x="2091"
     inkscape:window-y="-9"
     inkscape:window-maximized="1" />
  <metadata
     id="metadata5">
    <rdf:RDF>
      <cc:Work
         rdf:about="">
        <dc:format>image/svg+xml</dc:format>
        <dc:type
           rdf:resource="http://purl.org/dc/dcmitype/StillImage" />
        <dc:title />
      </cc:Work>
    </rdf:RDF>
  </metadata>
  <g
     inkscape:label="Layer 1"
     inkscape:groupmode="layer"
     id="layer1"
     transform="translate(-2.7343631e-6,-231.38333)">
    <rect
       style="opacity:1;fill:#c4e538;fill-opacity:1;stroke:#000000;stroke-width:0.06994082;stroke-opacity:0"
       id="rect854"
       width="93.32798"
       height="65.546722"
       x="-93.362953"
       y="231.4183"
       transform="scale(-1,1)" />
    <path
       id="path844"
       d="m 61.191146,257.62916 h -28.98437 c -0.451172,0 -0.820313,-0.36914 -0.820313,-0.82031 v -2.46093 c 0,-1.81153 1.469727,-3.28126 3.281249,-3.28126 h 3.281251 v -3.55469 c 0,-0.45116 0.36914,-0.82031 0.820312,-0.82031 h 2.734375 c 0.451171,0 0.820312,0.36915 0.820312,0.82031 v 3.55469 h 8.75 v -3.55469 c 0,-0.45116 0.36914,-0.82031 0.820312,-0.82031 h 2.734373 c 0.451173,0 0.820313,0.36915 0.820313,0.82031 v 3.55469 h 3.281253 c 1.811522,0 3.281248,1.46973 3.281248,3.28126 v 2.46093 c 0,0.45117 -0.36914,0.82031 -0.820315,0.82031 z m -28.98437,2.1875 h 28.98437 c 0.451175,0 0.820315,0.36914 0.820315,0.82032 v 17.77343 c 0,1.81152 -1.469726,3.28125 -3.281248,3.28125 H 34.667712 c -1.811522,0 -3.281249,-1.46973 -3.281249,-3.28125 v -17.77343 c 0,-0.45118 0.369141,-0.82032 0.820313,-0.82032 z m 20.781247,13.125 c 0.451172,0 0.820313,-0.36915 0.820313,-0.82032 v -2.73437 c 0,-0.45117 -0.369141,-0.82031 -0.820313,-0.82031 H 40.4099 c -0.451172,0 -0.820313,0.36914 -0.820313,0.82031 v 2.73437 c 0,0.45117 0.369141,0.82032 0.820313,0.82032 z"
       inkscape:connector-curvature="0"
       style="fill:#adb5bd;fill-opacity:1;stroke-width:0.06835935" />
  </g>
</svg>
