<?xml version="1.0" encoding="UTF-8" standalone="no"?>
<!-- Created with Inkscape (http://www.inkscape.org/) -->

<svg
   xmlns:dc="http://purl.org/dc/elements/1.1/"
   xmlns:cc="http://creativecommons.org/ns#"
   xmlns:rdf="http://www.w3.org/1999/02/22-rdf-syntax-ns#"
   xmlns:svg="http://www.w3.org/2000/svg"
   xmlns="http://www.w3.org/2000/svg"
   xmlns:sodipodi="http://sodipodi.sourceforge.net/DTD/sodipodi-0.dtd"
   xmlns:inkscape="http://www.inkscape.org/namespaces/inkscape"
   width="93.397919mm"
   height="65.616661mm"
   viewBox="0 0 93.397919 65.616661"
   version="1.1"
   id="svg8"
   inkscape:version="0.92.4 (5da689c313, 2019-01-14)"
   sodipodi:docname="splitflap.svg">
  <defs
     id="defs2" />
  <sodipodi:namedview
     id="base"
     pagecolor="#ffffff"
     bordercolor="#666666"
     borderopacity="1.0"
     inkscape:pageopacity="0.0"
     inkscape:pageshadow="2"
     inkscape:zoom="1.4"
     inkscape:cx="-6.8978986"
     inkscape:cy="109.9421"
     inkscape:document-units="mm"
     inkscape:current-layer="layer1"
     showgrid="false"
     inkscape:window-width="1920"
     inkscape:window-height="1001"
     inkscape:window-x="-9"
     inkscape:window-y="-9"
     inkscape:window-maximized="1" />
  <metadata
     id="metadata5">
    <rdf:RDF>
      <cc:Work
         rdf:about="">
        <dc:format>image/svg+xml</dc:format>
        <dc:type
           rdf:resource="http://purl.org/dc/dcmitype/StillImage" />
        <dc:title />
      </cc:Work>
    </rdf:RDF>
  </metadata>
  <g
     inkscape:label="Layer 1"
     inkscape:groupmode="layer"
     id="layer1"
     transform="translate(-2.7343631e-6,-231.38333)">
    <path
       style="opacity:1;fill:#c4e538;fill-opacity:1;stroke:#000000;stroke-width:0.26434326;stroke-opacity:0"
       d="M 0.1328125 0.1328125 L 0.1328125 247.86719 L 352.86719 247.86719 L 352.86719 0.1328125 L 0.1328125 0.1328125 z M 146.5293 57.857422 L 156.86328 57.857422 C 158.56849 57.857422 159.96484 59.253813 159.96484 60.958984 L 159.96484 74.394531 L 193.03516 74.394531 L 193.03516 60.958984 C 193.03516 59.253813 194.4315 57.857422 196.13672 57.857422 L 206.4707 57.857422 C 208.17592 57.857422 209.57031 59.253813 209.57031 60.958984 L 209.57031 74.394531 L 221.97266 74.394531 C 228.81935 74.394531 234.37305 79.948194 234.37305 86.794922 L 234.37305 96.095703 C 234.37305 97.800913 232.97867 99.197266 231.27344 99.197266 L 121.72656 99.197266 C 120.02135 99.197266 118.62695 97.800913 118.62695 96.095703 L 118.62695 86.794922 C 118.62695 79.948194 124.18065 74.394531 131.02734 74.394531 L 143.42969 74.394531 L 143.42969 60.958984 C 143.42969 59.253813 144.82408 57.857422 146.5293 57.857422 z M 121.72656 107.46484 L 231.27344 107.46484 C 232.97867 107.46484 234.37305 108.85921 234.37305 110.56445 L 234.37305 177.74023 C 234.37305 184.58692 228.81935 190.14258 221.97266 190.14258 L 131.02734 190.14258 C 124.18065 190.14258 118.62695 184.58692 118.62695 177.74023 L 118.62695 110.56445 C 118.62695 108.85921 120.02135 107.46484 121.72656 107.46484 z M 152.73047 140.53516 C 151.02525 140.53516 149.63086 141.93151 149.63086 143.63672 L 149.63086 153.9707 C 149.63086 155.67591 151.02525 157.07031 152.73047 157.07031 L 200.26953 157.07031 C 201.97475 157.07031 203.36914 155.67591 203.36914 153.9707 L 203.36914 143.63672 C 203.36914 141.93151 201.97475 140.53516 200.26953 140.53516 L 152.73047 140.53516 z "
       transform="matrix(0.26458333,0,0,0.26458333,2.7343631e-6,231.38333)"
       id="rect854" />
  </g>
</svg>
