<?xml version="1.0" encoding="UTF-8" standalone="no"?>
<svg
   xmlns:dc="http://purl.org/dc/elements/1.1/"
   xmlns:cc="http://creativecommons.org/ns#"
   xmlns:rdf="http://www.w3.org/1999/02/22-rdf-syntax-ns#"
   xmlns:svg="http://www.w3.org/2000/svg"
   xmlns="http://www.w3.org/2000/svg"
   xmlns:sodipodi="http://sodipodi.sourceforge.net/DTD/sodipodi-0.dtd"
   xmlns:inkscape="http://www.inkscape.org/namespaces/inkscape"
   width="93.397919mm"
   height="65.616661mm"
   viewBox="0 0 93.397919 65.616661"
   version="1.1"
   id="svg8"
   inkscape:version="1.0 (4035a4fb49, 2020-05-01)"
   sodipodi:docname="vbs.svg">
  <defs
     id="defs2" />
  <sodipodi:namedview
     id="base"
     pagecolor="#ffffff"
     bordercolor="#666666"
     borderopacity="1.0"
     inkscape:pageopacity="0.0"
     inkscape:pageshadow="2"
     inkscape:zoom="0.7"
     inkscape:cx="311.56551"
     inkscape:cy="-16.986291"
     inkscape:document-units="mm"
     inkscape:current-layer="layer1"
     showgrid="false"
     inkscape:window-width="1920"
     inkscape:window-height="1017"
     inkscape:window-x="1912"
     inkscape:window-y="-8"
     inkscape:window-maximized="1"
     inkscape:document-rotation="0" />
  <metadata
     id="metadata5">
    <rdf:RDF>
      <cc:Work
         rdf:about="">
        <dc:format>image/svg+xml</dc:format>
        <dc:type
           rdf:resource="http://purl.org/dc/dcmitype/StillImage" />
        <dc:title />
      </cc:Work>
    </rdf:RDF>
  </metadata>
  <g
     inkscape:label="Layer 1"
     inkscape:groupmode="layer"
     id="layer1"
     transform="translate(-2.7343631e-6,-231.38333)">
    <path
       transform="matrix(0.26458333,0,0,0.26458333,2.7343631e-6,231.38333)"
       d="M 0.1328125 0.1328125 L 0.1328125 247.86719 L 352.86719 247.86719 L 352.86719 0.1328125 L 0.1328125 0.1328125 z M 118.62695 57.857422 L 151.69727 57.857422 A 8.2677162 8.2677162 0 0 1 159.96484 66.125 L 159.96484 165.33789 A 24.80315 24.80315 0 0 1 110.35742 165.33789 L 110.35742 66.125 A 8.2677162 8.2677162 0 0 1 118.62695 57.857422 z M 126.89453 74.394531 L 126.89453 90.929688 L 143.42969 90.929688 L 143.42969 74.394531 L 126.89453 74.394531 z M 193.50195 75.429688 A 8.2237939 8.2237939 0 0 1 199.36523 77.845703 L 222.66016 101.18945 A 8.2677162 8.2677162 0 0 1 222.66016 112.86523 L 168.23242 167.40625 L 168.23242 97.357422 L 187.7207 77.845703 L 187.73828 77.826172 A 8.2237939 8.2237939 0 0 1 193.50195 75.429688 z M 126.89453 107.46484 L 126.89453 124 L 143.42969 124 L 143.42969 107.46484 L 126.89453 107.46484 z M 206.75195 140.53516 L 234.37305 140.53516 A 8.2677162 8.2677162 0 0 1 242.64258 148.80273 L 242.64258 181.87305 A 8.2677162 8.2677162 0 0 1 234.37305 190.14258 L 156.86328 190.14258 C 157.42652 189.64909 158.05761 189.2575 158.58984 188.72266 L 206.75195 140.53516 z M 135.1543 159.13867 A 6.2007874 6.2007874 0 0 0 135.16211 171.53906 A 6.2007874 6.2007874 0 0 0 141.36133 165.33789 A 6.2007874 6.2007874 0 0 0 135.1543 159.13867 z "
       style="opacity:1;fill:#12cbc4;fill-opacity:1;stroke:#000000;stroke-width:0.264343;stroke-opacity:0"
       id="rect854" />
  </g>
</svg>
