<?xml version="1.0" encoding="UTF-8" standalone="no"?>
<svg
   xmlns:dc="http://purl.org/dc/elements/1.1/"
   xmlns:cc="http://creativecommons.org/ns#"
   xmlns:rdf="http://www.w3.org/1999/02/22-rdf-syntax-ns#"
   xmlns:svg="http://www.w3.org/2000/svg"
   xmlns="http://www.w3.org/2000/svg"
   xmlns:sodipodi="http://sodipodi.sourceforge.net/DTD/sodipodi-0.dtd"
   xmlns:inkscape="http://www.inkscape.org/namespaces/inkscape"
   sodipodi:docname="vehicles.svg"
   inkscape:version="1.0 (4035a4fb49, 2020-05-01)"
   id="svg8"
   version="1.1"
   viewBox="0 0 93.397919 65.616661"
   height="65.616661mm"
   width="93.397919mm">
  <defs
     id="defs2" />
  <sodipodi:namedview
     inkscape:document-rotation="0"
     inkscape:window-maximized="1"
     inkscape:window-y="-8"
     inkscape:window-x="-8"
     inkscape:window-height="1017"
     inkscape:window-width="1920"
     showgrid="false"
     inkscape:current-layer="layer1"
     inkscape:document-units="mm"
     inkscape:cy="109.9421"
     inkscape:cx="-6.8978986"
     inkscape:zoom="1.4"
     inkscape:pageshadow="2"
     inkscape:pageopacity="0.0"
     borderopacity="1.0"
     bordercolor="#666666"
     pagecolor="#ffffff"
     id="base" />
  <metadata
     id="metadata5">
    <rdf:RDF>
      <cc:Work
         rdf:about="">
        <dc:format>image/svg+xml</dc:format>
        <dc:type
           rdf:resource="http://purl.org/dc/dcmitype/StillImage" />
        <dc:title />
      </cc:Work>
    </rdf:RDF>
  </metadata>
  <g
     transform="translate(-2.7343631e-6,-231.38333)"
     id="layer1"
     inkscape:groupmode="layer"
     inkscape:label="Layer 1">
    <path
       id="rect854"
       transform="matrix(0.26458333,0,0,0.26458333,2.7343631e-6,231.38333)"
       d="M 0.1328125 0.1328125 L 0.1328125 247.86719 L 352.86719 247.86719 L 352.86719 0.1328125 L 0.1328125 0.1328125 z M 151.69727 57.857422 L 201.30273 57.857422 C 218.09654 57.857422 234.37305 68.963779 234.37305 82.662109 L 234.37305 148.80273 C 234.37305 162.18997 218.45298 173.60547 200.78125 173.60547 L 217.05273 186.45312 C 218.58924 187.66639 217.72525 190.14258 215.77148 190.14258 L 137.22852 190.14258 C 135.27062 190.14258 134.41387 187.66356 135.94727 186.45312 L 152.21875 173.60547 C 134.59766 173.60547 118.62695 162.22588 118.62695 148.80273 L 118.62695 82.662109 C 118.62695 68.963779 135.16183 57.857422 151.69727 57.857422 z M 137.22852 82.662109 C 133.80387 82.662109 131.02734 85.43666 131.02734 88.861328 L 131.02734 117.79883 C 131.02734 121.22346 133.80387 124 137.22852 124 L 164.09766 124 C 167.5223 124 170.29883 121.22346 170.29883 117.79883 L 170.29883 88.861328 C 170.29883 85.43666 167.5223 82.662109 164.09766 82.662109 L 137.22852 82.662109 z M 188.90234 82.662109 C 185.4777 82.662109 182.70117 85.43666 182.70117 88.861328 L 182.70117 117.79883 C 182.70117 121.22346 185.4777 124 188.90234 124 L 215.77148 124 C 219.19613 124 221.97266 121.22346 221.97266 117.79883 L 221.97266 88.861328 C 221.97266 85.43666 219.19613 82.662109 215.77148 82.662109 L 188.90234 82.662109 z M 143.42969 132.26758 C 136.5804 132.26758 131.02734 137.82062 131.02734 144.66992 C 131.02734 151.51922 136.5804 157.07031 143.42969 157.07031 C 150.27897 157.07031 155.83008 151.51922 155.83008 144.66992 C 155.83008 137.82062 150.27897 132.26758 143.42969 132.26758 z M 209.57031 132.26758 C 202.72102 132.26758 197.16992 137.82062 197.16992 144.66992 C 197.16992 151.51922 202.72102 157.07031 209.57031 157.07031 C 216.4196 157.07031 221.97266 151.51922 221.97266 144.66992 C 221.97266 137.82062 216.4196 132.26758 209.57031 132.26758 z "
       style="opacity:1;fill:#a3cb38;fill-opacity:1;stroke:#000000;stroke-width:0.26434326;stroke-opacity:0" />
  </g>
</svg>
