<?xml version="1.0" encoding="UTF-8" standalone="no"?>
<svg
   xmlns:dc="http://purl.org/dc/elements/1.1/"
   xmlns:cc="http://creativecommons.org/ns#"
   xmlns:rdf="http://www.w3.org/1999/02/22-rdf-syntax-ns#"
   xmlns:svg="http://www.w3.org/2000/svg"
   xmlns="http://www.w3.org/2000/svg"
   xmlns:sodipodi="http://sodipodi.sourceforge.net/DTD/sodipodi-0.dtd"
   xmlns:inkscape="http://www.inkscape.org/namespaces/inkscape"
   width="93.397919mm"
   height="65.616661mm"
   viewBox="0 0 93.397919 65.616661"
   version="1.1"
   id="svg8"
   inkscape:version="1.0 (4035a4fb49, 2020-05-01)"
   sodipodi:docname="scmteam.svg">
  <defs
     id="defs2" />
  <sodipodi:namedview
     id="base"
     pagecolor="#ffffff"
     bordercolor="#666666"
     borderopacity="1.0"
     inkscape:pageopacity="0.0"
     inkscape:pageshadow="2"
     inkscape:zoom="1.4"
     inkscape:cx="227.28877"
     inkscape:cy="68.77569"
     inkscape:document-units="mm"
     inkscape:current-layer="layer1"
     showgrid="false"
     inkscape:window-width="1920"
     inkscape:window-height="1017"
     inkscape:window-x="1912"
     inkscape:window-y="-8"
     inkscape:window-maximized="1"
     inkscape:document-rotation="0" />
  <metadata
     id="metadata5">
    <rdf:RDF>
      <cc:Work
         rdf:about="">
        <dc:format>image/svg+xml</dc:format>
        <dc:type
           rdf:resource="http://purl.org/dc/dcmitype/StillImage" />
        <dc:title />
      </cc:Work>
    </rdf:RDF>
  </metadata>
  <g
     inkscape:label="Layer 1"
     inkscape:groupmode="layer"
     id="layer1"
     transform="translate(-2.7343631e-6,-231.38333)">
    <path
       transform="matrix(0.26458333,0,0,0.26458333,2.7343631e-6,231.38333)"
       d="M 0.1328125 0.1328125 L 0.1328125 247.86719 L 352.86719 247.86719 L 352.86719 0.1328125 L 0.1328125 0.1328125 z M 176.5 57.857422 C 213.01024 57.857422 242.64258 87.489752 242.64258 124 C 242.64258 160.51024 213.01024 190.14258 176.5 190.14258 C 139.98977 190.14258 110.35742 160.51024 110.35742 124 C 110.35742 87.489753 139.98977 57.857422 176.5 57.857422 z M 176.5 81.007812 C 167.37244 81.007812 159.96484 88.415409 159.96484 97.542969 C 159.96484 106.67054 167.37244 114.07812 176.5 114.07812 C 185.62756 114.07812 193.03516 106.67054 193.03516 97.542969 C 193.03516 88.415409 185.62756 81.007812 176.5 81.007812 z M 150.04297 127.30664 C 140.91541 127.30664 133.50781 134.71425 133.50781 143.8418 C 133.50781 152.96936 140.91541 160.37891 150.04297 160.37891 C 159.17053 160.37891 166.57812 152.96936 166.57812 143.8418 C 166.57812 134.71425 159.17053 127.30664 150.04297 127.30664 z M 202.95703 127.30664 C 193.82947 127.30664 186.42188 134.71425 186.42188 143.8418 C 186.42187 152.96936 193.82947 160.37891 202.95703 160.37891 C 212.08459 160.37891 219.49219 152.96936 219.49219 143.8418 C 219.49219 134.71425 212.08459 127.30664 202.95703 127.30664 z "
       style="opacity:1;fill:#ea2027;fill-opacity:1;stroke:#000000;stroke-width:0.264343;stroke-opacity:0"
       id="rect854" />
    <g
       transform="matrix(0.396875,0,0,0.396875,15.459229,218.68333)"
       id="g869"
       style="fill:#000000">
      <path
         d="M 0,0 H 24 V 24 H 0 Z"
         fill="none"
         id="path855" />
    </g>
  </g>
</svg>
