<?xml version="1.0" encoding="UTF-8" standalone="no"?>
<svg
   xmlns:dc="http://purl.org/dc/elements/1.1/"
   xmlns:cc="http://creativecommons.org/ns#"
   xmlns:rdf="http://www.w3.org/1999/02/22-rdf-syntax-ns#"
   xmlns:svg="http://www.w3.org/2000/svg"
   xmlns="http://www.w3.org/2000/svg"
   xmlns:sodipodi="http://sodipodi.sourceforge.net/DTD/sodipodi-0.dtd"
   xmlns:inkscape="http://www.inkscape.org/namespaces/inkscape"
   sodipodi:docname="sme.svg"
   inkscape:version="1.0 (4035a4fb49, 2020-05-01)"
   id="svg8"
   version="1.1"
   viewBox="0 0 93.397919 65.616661"
   height="65.616661mm"
   width="93.397919mm">
  <defs
     id="defs2" />
  <sodipodi:namedview
     inkscape:document-rotation="0"
     inkscape:window-maximized="1"
     inkscape:window-y="-8"
     inkscape:window-x="1912"
     inkscape:window-height="1017"
     inkscape:window-width="1920"
     showgrid="false"
     inkscape:current-layer="layer1"
     inkscape:document-units="mm"
     inkscape:cy="76.358085"
     inkscape:cx="178.70138"
     inkscape:zoom="1.979899"
     inkscape:pageshadow="2"
     inkscape:pageopacity="0.0"
     borderopacity="1.0"
     bordercolor="#666666"
     pagecolor="#ffffff"
     id="base" />
  <metadata
     id="metadata5">
    <rdf:RDF>
      <cc:Work
         rdf:about="">
        <dc:format>image/svg+xml</dc:format>
        <dc:type
           rdf:resource="http://purl.org/dc/dcmitype/StillImage" />
        <dc:title />
      </cc:Work>
    </rdf:RDF>
  </metadata>
  <g
     transform="translate(-2.7343631e-6,-231.38333)"
     id="layer1"
     inkscape:groupmode="layer"
     inkscape:label="Layer 1">
    <path
       id="rect854"
       d="M 0.1328125,0.1328125 V 247.86719 H 352.86719 V 0.1328125 Z"
       style="opacity:1;fill:#f79f1f;fill-opacity:1;stroke:#000000;stroke-width:0.264343;stroke-opacity:0"
       sodipodi:nodetypes="ccccc"
       transform="matrix(0.26458333,0,0,0.26458333,2.7343631e-6,231.38333)" />
    <g
       id="g2659"
       transform="matrix(0.13225514,0,0,0.13225514,29.146059,246.6057)">
      <path
         id="path2583"
         d="m 132.72,230.34 c 53.69,0 97.37,-43.68 97.37,-97.37 0,-53.69 -43.68,-97.37 -97.37,-97.37 -53.69,0 -97.37,43.68 -97.37,97.37 0,53.69 43.68,97.37 97.37,97.37 z M 73.22,181.13 C 73,180.78 72.54,180.68 72.19,180.9 l -9.8,6.21 c -2.35,-3.06 -4.5,-6.26 -6.44,-9.61 -0.13,-0.22 -0.24,-0.44 -0.37,-0.66 l 23.85,-10.7 c 0.38,-0.17 0.55,-0.61 0.38,-0.99 -0.17,-0.38 -0.61,-0.55 -0.99,-0.38 l -23.97,10.75 c -5.76,-10.59 -9.3,-22.28 -10.39,-34.31 l 42.87,-7.29 c 0.41,-0.07 0.68,-0.46 0.61,-0.87 -0.07,-0.41 -0.46,-0.68 -0.87,-0.61 l -42.74,7.27 c -0.16,-2.17 -0.25,-4.35 -0.25,-6.53 0,-8.02 1.09,-15.88 3.16,-23.4 l 13.77,2.98 c 0.05,0.01 0.11,0.02 0.16,0.02 0.35,0 0.66,-0.24 0.73,-0.59 0.09,-0.4 -0.17,-0.8 -0.57,-0.89 l -13.67,-2.96 c 1.2,-4.11 2.7,-8.11 4.47,-11.98 l 28.91,11.23 c 0.09,0.03 0.18,0.05 0.27,0.05 0.3,0 0.58,-0.18 0.7,-0.48 0.15,-0.39 -0.04,-0.82 -0.43,-0.97 L 52.76,94.99 c 1.74,-3.63 3.72,-7.14 5.93,-10.5 l 12.15,5.57 c 0.1,0.05 0.21,0.07 0.31,0.07 0.28,0 0.56,-0.16 0.68,-0.44 C 72,89.31 71.84,88.87 71.46,88.7 L 59.53,83.23 C 68.3,70.38 80.45,59.8 95.05,52.94 c 2.97,4.87 7.47,8.08 12.51,8.75 -0.12,0.66 -0.18,1.34 -0.18,2.05 0,6.1 5.38,11.06 11.99,11.06 1.05,0 2.08,-0.13 3.06,-0.37 l 0.74,7.76 c -3.54,2.82 -5.81,7.15 -5.81,12.01 0,2.8 0.76,5.43 2.08,7.69 -11.82,5.22 -19.64,17.1 -19.64,30.12 0,6.58 1.95,12.71 5.28,17.85 l -3.01,11.39 c -5.22,0.59 -9.29,5.02 -9.29,10.39 0,5.26 3.9,9.61 8.96,10.34 v 6.1 h 6.01 l -21.62,20.5 C 77.4,203.18 69.67,196.29 63.3,188.28 l 9.67,-6.13 c 0.37,-0.2 0.47,-0.67 0.25,-1.02 z M 127.25,72.09 c 1.6,1.22 3.47,1.77 6.02,1.77 1.96,0 3.83,-0.5 5.39,-1.42 0.44,0.37 0.92,0.69 1.43,0.98 l -0.66,6.98 c -2.03,-0.99 -4.3,-1.54 -6.7,-1.54 -2.4,0 -4.68,0.56 -6.7,1.54 l -0.67,-7.06 c 0.66,-0.36 1.3,-0.78 1.89,-1.25 z m 26.92,-2.1 c 1.25,0.36 2.56,0.55 3.89,0.55 6.95,0 12.6,-4.97 12.6,-11.08 0,-0.74 -0.09,-1.47 -0.25,-2.18 1.4,-0.58 2.71,-1.38 3.89,-2.37 9.83,5.23 18.41,12.11 25.44,20.2 L 168.8,94.49 c -0.35,0.22 -0.46,0.68 -0.24,1.03 0.14,0.23 0.39,0.35 0.64,0.35 0.14,0 0.27,-0.04 0.4,-0.11 l 31.11,-19.5 c 4.94,5.89 9.08,12.38 12.32,19.33 l -13.44,3.66 c -0.4,0.11 -0.64,0.52 -0.53,0.92 0.09,0.33 0.39,0.55 0.72,0.55 0.07,0 0.13,-0.01 0.2,-0.03 l 13.68,-3.73 c 2.12,4.75 3.83,9.7 5.09,14.81 l -40.64,5.87 c -0.41,0.06 -0.69,0.44 -0.63,0.85 0.05,0.37 0.37,0.64 0.74,0.64 0.04,0 0.07,0 0.11,-0.01 l 40.76,-5.89 c 1.48,6.45 2.26,13.13 2.26,19.94 0,5.14 -0.46,10.25 -1.33,15.28 l -14.41,-3.69 c -0.4,-0.1 -0.81,0.14 -0.91,0.54 -0.1,0.4 0.14,0.81 0.54,0.91 l 14.51,3.72 c -0.47,2.44 -1.04,4.85 -1.71,7.23 l -35.7,-12.26 c -0.39,-0.14 -0.82,0.07 -0.95,0.47 -0.13,0.39 0.07,0.82 0.47,0.95 l 35.78,12.29 c -1.93,6.45 -4.59,12.68 -7.95,18.54 l -21.85,-11.68 c -0.36,-0.19 -0.82,-0.06 -1.02,0.31 -0.2,0.37 -0.06,0.82 0.31,1.01 l 21.79,11.65 c -7.29,12.23 -17.48,22.61 -29.58,30.11 l -21.59,-20.47 h 5.91 l 0.02,-6.1 c 5.06,-0.73 8.97,-5.08 8.97,-10.34 0,-5.38 -4.08,-9.82 -9.31,-10.4 l -3,-11.36 c 3.35,-5.15 5.3,-11.29 5.3,-17.88 0,-13.02 -7.82,-24.9 -19.64,-30.12 1.32,-2.26 2.08,-4.89 2.08,-7.69 0,-4.86 -2.27,-9.2 -5.81,-12.01 L 143,74.52 c 0.76,0.17 1.56,0.26 2.37,0.26 3.79,0.02 7.11,-1.93 8.8,-4.79 z m 18.91,147.72 -22.1,-29.61 h 2.41 l 27.06,25.66 c -2.39,1.42 -4.85,2.74 -7.37,3.95 z m -58.81,-24.25 h 8.75 c 0.41,0 0.75,-0.34 0.75,-0.75 0,-0.41 -0.34,-0.75 -0.75,-0.75 h -7.63 l 2.88,-3.86 h 28.97 l 2.88,3.86 h -20.99 c -0.41,0 -0.75,0.34 -0.75,0.75 0,0.41 0.34,0.75 0.75,0.75 h 22.06 c 0.01,0 0.03,0 0.04,0 l 3.2,4.28 h -43.36 z m -9.52,-8.36 V 182 c 4.24,-0.61 7.66,-3.77 8.66,-7.88 H 118 V 185.1 Z M 132.72,81.86 c 6.81,0 12.35,5.54 12.35,12.35 0,6.81 -5.54,12.35 -12.35,12.35 -6.81,0 -12.35,-5.54 -12.35,-12.35 0,-6.81 5.54,-12.35 12.35,-12.35 z m 0,27.71 c 4.56,0 8.66,-2 11.48,-5.17 11.07,4.61 18.44,15.59 18.44,27.63 0,16.5 -13.42,29.92 -29.92,29.92 -16.5,0 -29.92,-13.42 -29.92,-29.92 0,-12.05 7.37,-23.03 18.44,-27.63 2.82,3.16 6.92,5.17 11.48,5.17 z m 0,55.37 c 10.18,0 19.3,-4.65 25.34,-11.93 l 2.21,8.37 c -4.68,0.87 -8.27,4.87 -8.52,9.74 h -38.07 c -0.25,-4.88 -3.84,-8.88 -8.54,-9.74 l 2.21,-8.38 c 6.06,7.29 15.18,11.94 25.37,11.94 z m 15.05,20.16 v -10.98 h 4.26 c 1,4.11 4.41,7.27 8.65,7.88 l -0.01,3.1 z m -1.5,-10.98 V 185.1 H 119.5 v -10.98 z m 15.92,5 c -4.11,0 -7.46,-3.35 -7.46,-7.46 0,-4.11 3.35,-7.46 7.46,-7.46 4.11,0 7.46,3.35 7.46,7.46 0,4.11 -3.35,7.46 -7.46,7.46 z M 103.25,164.2 c 4.11,0 7.46,3.35 7.46,7.46 0,4.11 -3.35,7.46 -7.46,7.46 -4.11,0 -7.46,-3.35 -7.46,-7.46 0,-4.11 3.35,-7.46 7.46,-7.46 z m 6.71,35.04 h 45.6 l 5.27,7.06 h -56.14 z m 2.16,-11.14 h 2.41 l -22.11,29.63 c -2.53,-1.21 -4.99,-2.52 -7.38,-3.94 z m -16.91,30.91 1.19,-1.59 h 49.3 c 0.41,0 0.75,-0.34 0.75,-0.75 0,-0.41 -0.34,-0.75 -0.75,-0.75 H 97.51 l 6.06,-8.12 h 58.38 l 6.06,8.12 h -13.24 c -0.41,0 -0.75,0.34 -0.75,0.75 0,0.41 0.34,0.75 0.75,0.75 h 14.36 l 1.17,1.57 c -11.51,5.05 -24.22,7.86 -37.57,7.86 -13.34,-0.01 -26.03,-2.81 -37.52,-7.84 z m 131.38,-86.04 c 0,33.23 -17.36,62.48 -43.49,79.17 l -2.64,-2.5 c 12.49,-7.82 22.96,-18.64 30.34,-31.4 7.88,-13.63 12.05,-29.21 12.05,-45.05 0,-33.34 -18.12,-63.58 -47.39,-79.36 0.91,-0.92 1.72,-1.97 2.42,-3.13 29.01,15.99 48.71,46.87 48.71,82.27 z M 175.23,49.29 c -1.49,2.39 -3.55,4.19 -5.92,5.19 -0.49,-0.85 -1.09,-1.65 -1.82,-2.37 -0.59,-0.58 -1.54,-0.58 -2.12,0.01 -0.58,0.59 -0.58,1.54 0.01,2.12 1.47,1.46 2.28,3.31 2.28,5.22 0,4.46 -4.3,8.08 -9.6,8.08 -0.98,0 -1.93,-0.13 -2.85,-0.37 0.09,-0.49 0.15,-1 0.15,-1.51 0,-1.31 -0.3,-2.57 -0.88,-3.75 -0.37,-0.74 -1.27,-1.05 -2.01,-0.68 -0.74,0.37 -1.05,1.27 -0.68,2.01 0.38,0.77 0.57,1.58 0.57,2.43 0,3.39 -3.14,6.14 -7,6.14 -2.84,0 -5.38,-1.49 -6.47,-3.81 -0.35,-0.75 -1.25,-1.07 -2,-0.72 -0.75,0.35 -1.07,1.25 -0.72,2 0.14,0.3 0.3,0.58 0.47,0.86 -1,0.48 -2.16,0.73 -3.38,0.73 -1.72,0 -2.93,-0.29 -3.93,-0.97 0.61,-0.84 1.1,-1.75 1.45,-2.75 0.27,-0.78 -0.14,-1.64 -0.92,-1.91 -0.78,-0.27 -1.64,0.14 -1.91,0.92 -1.18,3.38 -4.63,5.65 -8.58,5.65 -4.96,0 -8.99,-3.62 -8.99,-8.06 0,-2.63 1.09,-4.71 3.24,-6.18 0.68,-0.47 0.86,-1.4 0.39,-2.09 -0.47,-0.68 -1.4,-0.86 -2.09,-0.39 -1.47,1.01 -2.6,2.26 -3.36,3.7 -5.78,-0.47 -10.83,-5.13 -13.02,-11.99 4.77,-2.07 9.75,-3.75 14.9,-5.01 1.35,3.19 4.38,5.33 7.69,5.33 0.43,0 0.86,-0.04 1.29,-0.11 1.96,-0.33 3.73,-1.41 4.97,-3.03 0.25,-0.33 0.19,-0.8 -0.14,-1.05 -0.33,-0.25 -0.8,-0.19 -1.05,0.14 -1.01,1.32 -2.45,2.2 -4.03,2.47 -3.02,0.51 -5.93,-1.25 -7.25,-4.09 6.7,-1.52 13.66,-2.33 20.81,-2.33 15.28,-0.02 29.73,3.66 42.5,10.17 z M 92.78,48.04 c 0.42,1.27 0.94,2.47 1.53,3.59 -31.47,14.84 -51.72,46.68 -51.72,81.56 0,15.84 4.17,31.43 12.06,45.07 7.39,12.77 17.87,23.59 30.38,31.41 l -2.64,2.5 C 56.24,195.49 38.86,166.22 38.86,132.97 38.85,95.49 60.94,63.07 92.78,48.04 Z"
         class="st0" />
      <path
         id="path2585"
         d="M 226.29,39.41 C 201.3,14.42 168.07,0.65 132.73,0.65 97.39,0.65 64.16,14.41 39.17,39.41 14.16,64.4 0.4,97.63 0.4,132.97 c 0,35.34 13.76,68.57 38.76,93.56 24.99,24.99 58.22,38.76 93.56,38.76 35.34,0 68.57,-13.76 93.56,-38.76 24.99,-24.99 38.76,-58.22 38.76,-93.56 0,-35.34 -13.76,-68.57 -38.75,-93.56 z m -1.07,186.06 c -24.71,24.71 -57.56,38.32 -92.5,38.32 -34.94,0 -67.8,-13.61 -92.5,-38.32 C 15.51,200.77 1.9,167.91 1.9,132.97 1.9,98.03 15.51,65.17 40.22,40.47 64.93,15.77 97.78,2.15 132.72,2.15 c 34.94,0 67.79,13.61 92.5,38.32 24.71,24.71 38.32,57.56 38.32,92.5 0,34.94 -13.61,67.8 -38.32,92.5 z"
         class="st0" />
      <path
         id="path2587"
         d="M 222.39,43.31 C 198.44,19.36 166.6,6.17 132.72,6.17 98.84,6.17 67.01,19.36 43.06,43.31 19.11,67.26 5.92,99.1 5.92,132.97 c 0,33.87 13.19,65.71 37.14,89.67 23.95,23.96 55.79,37.14 89.67,37.14 33.88,0 65.71,-13.19 89.67,-37.14 23.95,-23.95 37.14,-55.79 37.14,-89.67 -0.01,-33.87 -13.2,-65.71 -37.15,-89.66 z m -2.48,176.85 c -23.29,23.29 -54.25,36.12 -87.19,36.12 -32.94,0 -63.9,-12.83 -87.19,-36.12 C 22.24,196.87 9.41,165.91 9.41,132.97 9.41,100.03 22.24,69.07 45.53,45.78 68.82,22.49 99.78,9.67 132.72,9.67 c 32.94,0 63.9,12.83 87.19,36.12 23.29,23.29 36.12,54.25 36.12,87.19 0,32.94 -12.83,63.89 -36.12,87.18 z"
         class="st0" />
      <path
         id="path2589"
         d="m 70.8,43.99 c 1.02,-0.44 1.82,-0.77 2.16,-0.28 0.31,0.45 0.03,1.12 -0.79,1.69 -1.27,0.88 -2.69,1.04 -3.83,0.84 l -0.02,2.68 c 1.56,0.24 3.28,-0.08 5.16,-1.4 2.5,-1.74 3.01,-3.94 1.71,-5.81 -1.52,-2.19 -3.97,-1.18 -5.72,-0.43 -1.04,0.41 -1.86,0.75 -2.17,0.31 -0.27,-0.39 -0.16,-0.88 0.54,-1.37 0.92,-0.64 2.16,-1.03 3.39,-0.93 l 0.12,-2.63 c -1.58,-0.16 -3.19,0.3 -4.68,1.33 -2.39,1.66 -2.74,3.98 -1.65,5.54 1.59,2.3 4.03,1.22 5.78,0.46 z"
         class="st0" />
      <path
         id="polygon2591"
         style="fill:#ffffff"
         d="m 76.35,34.96 2.82,-1.47 4.07,7.79 2.59,-1.36 -4.07,-7.79 2.81,-1.46 -1.18,-2.26 -8.22,4.29 z"
         class="st0" />
      <path
         id="path2593"
         d="m 97.56,35.11 c 3.26,-1.17 4.88,-4.32 3.71,-7.57 -1.17,-3.25 -4.42,-4.65 -7.68,-3.47 -3.26,1.17 -4.89,4.33 -3.73,7.57 1.17,3.25 4.43,4.64 7.7,3.47 z m -3.1,-8.61 c 1.76,-0.63 3.38,0.3 4.01,2.05 0.62,1.73 -0.03,3.5 -1.79,4.13 -1.78,0.64 -3.4,-0.31 -4.02,-2.04 -0.63,-1.75 0.03,-3.5 1.8,-4.14 z"
         class="st0" />
      <path
         id="path2595"
         d="m 112.92,30.89 c 3.41,-0.66 5.49,-3.52 4.83,-6.91 -0.65,-3.39 -3.65,-5.27 -7.05,-4.61 -3.41,0.66 -5.5,3.52 -4.85,6.91 0.65,3.39 3.67,5.27 7.07,4.61 z m -1.73,-8.98 c 1.84,-0.35 3.29,0.82 3.64,2.64 0.35,1.8 -0.56,3.45 -2.4,3.8 -1.85,0.36 -3.31,-0.83 -3.66,-2.64 -0.35,-1.81 0.57,-3.44 2.42,-3.8 z"
         class="st0" />
      <path
         id="polygon2597"
         style="fill:#ffffff"
         d="m 135.78,17.33 -4.06,0.12 -2.2,6.22 -2.54,-6.08 -4.06,0.11 0.33,11.34 2.92,-0.09 -0.21,-7.37 3.06,7.29 1.29,-0.04 2.66,-7.45 0.21,7.37 2.93,-0.08 z"
         class="st0" />
      <path
         id="polygon2599"
         style="fill:#ffffff"
         d="m 144.69,20.64 -1.03,8.73 2.9,0.34 1.04,-8.73 3.14,0.37 0.3,-2.53 -9.21,-1.09 -0.3,2.53 z"
         class="st0" />
      <path
         id="path2601"
         d="m 157.84,27.92 1.45,0.37 0.9,4.16 3.25,0.83 -1.21,-4.61 c 1.11,-0.1 2.54,-0.83 3.03,-2.74 0.52,-2.04 -0.45,-4.01 -2.89,-4.63 l -5.5,-1.4 -2.8,10.99 2.83,0.72 z m 1.23,-4.82 2.24,0.57 c 0.74,0.19 1.26,0.78 1.07,1.52 -0.2,0.77 -0.93,1.03 -1.67,0.84 l -2.24,-0.57 z"
         class="st0" />
      <path
         id="polygon2603"
         style="fill:#ffffff"
         d="m 178.78,29.72 0.95,-2.37 -7.72,-3.1 -4.22,10.53 7.71,3.09 0.95,-2.36 -5,-2.01 0.72,-1.78 4.89,1.96 0.95,-2.37 -4.89,-1.96 0.65,-1.64 z"
         class="st0" />
      <path
         id="rect2605"
         transform="rotate(-62.263875,183.74625,35.691724)"
         style="fill:#ffffff"
         d="m 178.08,34.23 h 11.34 v 2.92 h -11.34 z"
         class="st0" />
      <path
         id="polygon2607"
         style="fill:#ffffff"
         d="m 195.78,36.16 -2.49,-1.69 -6.38,9.37 2.42,1.65 3.69,-5.43 0.27,8.12 2.33,1.59 6.39,-9.37 -2.43,-1.66 -3.52,5.16 z"
         class="st0" />
      <path
         id="polygon2609"
         style="fill:#ffffff"
         d="m 40.85,203.13 0.79,1.02 7.59,-2.24 -5.83,4.52 1.79,2.31 8.97,-6.94 -2.49,-3.22 -6.32,1.89 3.42,-5.64 -2.49,-3.21 -8.97,6.94 1.79,2.31 5.84,-4.51 z"
         class="st0" />
      <path
         id="path2611"
         d="m 59.68,207.39 -10.9,5.29 2.41,2.28 1.53,-0.8 3.24,3.08 -0.72,1.57 2.41,2.28 4.69,-11.18 z m -2.54,7.45 -2.1,-1.99 3.98,-2.1 z"
         class="st0" />
      <path
         id="polygon2613"
         style="fill:#ffffff"
         d="m 61.71,224.25 6.03,4.42 1.51,-2.06 -3.68,-2.69 5.19,-7.09 -2.36,-1.73 z"
         class="st0" />
      <path
         id="path2615"
         d="m 82.25,224.22 -4.17,-2.29 -5.46,9.94 4.19,2.3 c 3.11,1.71 6.4,1.05 8.1,-2.03 1.69,-3.09 0.47,-6.2 -2.66,-7.92 z m 0.03,6.47 c -0.81,1.48 -2.52,2.19 -4.26,1.23 l -1.61,-0.88 3,-5.47 1.62,0.89 c 1.83,1 2.1,2.7 1.25,4.23 z"
         class="st0" />
      <path
         id="polygon2617"
         style="fill:#ffffff"
         d="m 92.77,233.96 0.64,-1.65 5.03,1.94 0.91,-2.38 -7.76,-2.99 -4.07,10.59 7.76,2.98 0.92,-2.38 -5.03,-1.93 0.68,-1.8 4.92,1.89 0.92,-2.38 z"
         class="st0" />
      <path
         id="path2619"
         d="m 108.53,236.86 c 1.08,0.25 1.76,1.13 2,1.96 l 2.68,-0.68 c -0.44,-1.55 -1.62,-3.21 -4.08,-3.79 -3.29,-0.78 -6.49,0.79 -7.32,4.3 -0.83,3.51 1.33,6.34 4.63,7.12 2.09,0.49 3.89,0.03 5.39,-1 l 1.04,-4.39 -5.33,-1.26 -0.59,2.5 2.48,0.59 -0.2,0.86 c -0.48,0.24 -1.38,0.37 -2.19,0.18 -1.8,-0.43 -2.75,-2.12 -2.32,-3.92 0.4,-1.8 2,-2.89 3.81,-2.47 z"
         class="st0" />
      <path
         id="polygon2621"
         style="fill:#ffffff"
         d="m 120.95,240.91 0.17,-1.76 5.37,0.53 0.25,-2.54 -8.28,-0.81 -1.1,11.29 8.27,0.81 0.25,-2.54 -5.36,-0.53 0.18,-1.91 5.25,0.52 0.25,-2.54 z"
         class="st0" />
      <path
         id="polygon2623"
         style="fill:#ffffff"
         d="m 137.51,248.47 1.29,-0.06 2.53,-7.51 0.34,7.37 2.92,-0.13 -0.52,-11.33 -4.06,0.19 -2.1,6.26 -2.64,-6.04 -4.06,0.19 0.52,11.32 2.92,-0.13 -0.34,-7.37 z"
         class="st0" />
      <path
         id="rect2625"
         transform="matrix(0.9711,-0.2389,0.2389,0.9711,-52.6255,44.9227)"
         style="fill:#ffffff"
         d="m 156.99001,238.49001 h 4.08 v 2.19 h -4.08 z"
         class="st0" />
      <path
         id="polygon2627"
         style="fill:#ffffff"
         d="m 178.66,226.69 -7.61,3.35 4.57,10.37 7.61,-3.35 -1.03,-2.33 -4.93,2.17 -0.78,-1.76 4.83,-2.12 -1.03,-2.33 -4.82,2.12 -0.72,-1.62 4.94,-2.17 z"
         class="st0" />
      <path
         id="polygon2629"
         style="fill:#ffffff"
         d="m 189.86,220.29 -7.13,4.27 5.82,9.73 7.13,-4.27 -1.31,-2.19 -4.62,2.77 -0.99,-1.65 4.52,-2.7 -1.31,-2.19 -4.52,2.7 -0.91,-1.51 4.63,-2.77 z"
         class="st0" />
      <path
         id="polygon2631"
         style="fill:#ffffff"
         d="m 200.88,222.21 0.02,-1.22 4.97,1.51 2.82,-2.22 -7.38,-1.87 0.18,-6.89 -2.83,2.23 0.14,5.82 -2.88,-3.66 -2.3,1.81 7.02,8.9 2.3,-1.81 z"
         class="st0" />
      <path
         id="polygon2633"
         style="fill:#ffffff"
         d="m 206.44,206.69 -2.06,2.08 8.06,7.98 5.26,-5.32 -1.81,-1.79 -3.21,3.24 z"
         class="st0" />
      <path
         id="path2635"
         d="m 223.84,194.8 c -2.74,-2.09 -6.23,-1.5 -8.33,1.25 -2.1,2.76 -1.76,6.29 0.98,8.38 2.74,2.09 6.24,1.49 8.34,-1.27 2.1,-2.75 1.75,-6.27 -0.99,-8.36 z m -1.07,6.8 c -1.15,1.5 -3.03,1.58 -4.49,0.47 -1.47,-1.12 -1.88,-2.95 -0.73,-4.45 1.13,-1.49 3,-1.58 4.48,-0.46 1.46,1.11 1.88,2.95 0.74,4.44 z"
         class="st0" />
      <path
         id="path2637"
         d="m 122.94,52.93 c -0.41,0 -0.75,0.34 -0.75,0.75 0,3.65 3.39,6.62 7.56,6.62 2.8,0 5.36,-1.34 6.68,-3.51 0.22,-0.35 0.1,-0.82 -0.25,-1.03 -0.35,-0.21 -0.81,-0.1 -1.03,0.25 -1.05,1.72 -3.12,2.79 -5.4,2.79 -3.34,0 -6.06,-2.3 -6.06,-5.12 0,-0.41 -0.33,-0.75 -0.75,-0.75 z"
         class="st0" />
      <path
         id="path2639"
         d="m 138.33,48.51 c 0.63,1.8 2.01,3.22 3.88,3.99 0.96,0.39 1.99,0.59 3.04,0.59 0.96,0 1.93,-0.17 2.87,-0.5 1.64,-0.58 3.02,-1.6 3.98,-2.89 0.54,0.14 1.05,0.2 1.54,0.2 0.94,0 1.82,-0.22 2.8,-0.57 0.99,-0.35 1.9,-0.86 2.69,-1.52 0.32,-0.27 0.36,-0.74 0.09,-1.06 -0.27,-0.32 -0.74,-0.36 -1.06,-0.09 -0.65,0.55 -1.4,0.97 -2.22,1.26 -1.27,0.45 -2.12,0.57 -3.04,0.42 0.32,-0.7 0.54,-1.44 0.62,-2.21 0.04,-0.41 -0.25,-0.78 -0.67,-0.82 -0.41,-0.05 -0.78,0.25 -0.82,0.67 -0.24,2.31 -1.98,4.35 -4.41,5.21 -1.62,0.57 -3.34,0.55 -4.84,-0.07 -1.47,-0.6 -2.54,-1.7 -3.03,-3.1 -0.12,-0.35 -0.21,-0.72 -0.25,-1.09 -0.05,-0.41 -0.41,-0.71 -0.83,-0.66 -0.41,0.05 -0.71,0.42 -0.66,0.83 0.05,0.47 0.16,0.95 0.32,1.41 z"
         class="st0" />
      <path
         id="path2641"
         d="m 132.76,144.74 c 6.49,0 11.77,-5.28 11.77,-11.77 0,-6.49 -5.28,-11.77 -11.77,-11.77 -6.49,0 -11.77,5.28 -11.77,11.77 0,6.49 5.28,11.77 11.77,11.77 z m 0,-20.54 c 4.84,0 8.77,3.93 8.77,8.77 0,4.84 -3.93,8.77 -8.77,8.77 -4.84,0 -8.77,-3.93 -8.77,-8.77 0,-4.83 3.93,-8.77 8.77,-8.77 z"
         class="st0" />
      <path
         id="path2643"
         d="m 112.86,126.86 c 0.91,0.37 1.94,-0.07 2.31,-0.98 0.37,-0.91 -0.07,-1.94 -0.98,-2.31 -0.91,-0.37 -1.94,0.07 -2.31,0.98 -0.37,0.91 0.07,1.94 0.98,2.31 z"
         class="st0" />
      <path
         id="path2645"
         d="m 125.32,115.54 c 0.9,-0.38 1.32,-1.42 0.94,-2.33 -0.38,-0.91 -1.42,-1.32 -2.33,-0.94 -0.9,0.38 -1.32,1.42 -0.94,2.33 0.38,0.91 1.43,1.32 2.33,0.94 z"
         class="st0" />
      <path
         id="path2647"
         d="m 139.81,115.41 c 0.91,0.37 1.94,-0.07 2.31,-0.98 0.37,-0.91 -0.07,-1.94 -0.98,-2.31 -0.91,-0.37 -1.94,0.07 -2.31,0.98 -0.36,0.91 0.08,1.95 0.98,2.31 z"
         class="st0" />
      <path
         id="path2649"
         d="m 152.48,126.51 c 0.9,-0.38 1.32,-1.42 0.94,-2.33 -0.38,-0.9 -1.42,-1.32 -2.33,-0.94 -0.91,0.38 -1.32,1.42 -0.94,2.33 0.38,0.9 1.42,1.32 2.33,0.94 z"
         class="st0" />
      <path
         id="path2651"
         d="m 152.59,139.08 c -0.91,-0.37 -1.94,0.07 -2.31,0.98 -0.37,0.91 0.07,1.94 0.98,2.31 0.91,0.37 1.94,-0.07 2.31,-0.98 0.36,-0.91 -0.08,-1.94 -0.98,-2.31 z"
         class="st0" />
      <path
         id="path2653"
         d="m 140.12,150.4 c -0.9,0.38 -1.32,1.42 -0.94,2.33 0.38,0.9 1.42,1.32 2.33,0.94 0.91,-0.38 1.32,-1.42 0.94,-2.33 -0.38,-0.91 -1.43,-1.32 -2.33,-0.94 z"
         class="st0" />
      <path
         id="path2655"
         d="m 125.63,150.53 c -0.91,-0.37 -1.94,0.07 -2.31,0.98 -0.37,0.91 0.07,1.94 0.98,2.31 0.91,0.37 1.94,-0.07 2.31,-0.98 0.36,-0.91 -0.07,-1.95 -0.98,-2.31 z"
         class="st0" />
      <path
         id="path2657"
         d="m 112.97,139.43 c -0.9,0.38 -1.32,1.42 -0.94,2.33 0.38,0.9 1.42,1.32 2.33,0.94 0.9,-0.38 1.32,-1.42 0.94,-2.33 -0.39,-0.9 -1.43,-1.32 -2.33,-0.94 z"
         class="st0" />
    </g>
  </g>
  <style
     id="style2100"
     type="text/css">
	.st0{fill:#1E1E1C;}
</style>
  <style
     id="style2581"
     type="text/css">
	.st0{fill:#FFFFFF;}
</style>
</svg>
